<svg xmlns="http://www.w3.org/2000/svg" viewBox="0 0 679.68 154.65"><defs><style>.cls-1{fill:#fff021;}</style></defs><title>Middel 1</title><g id="Laag_2" data-name="Laag 2"><g id="Laag_1-2" data-name="Laag 1"><path d="M56.81,36.42q-14.51,0-22.44,10.89T26.42,77.66q0,40.49,30.39,40.49,12.75,0,30.88-6.38V133.3a85.75,85.75,0,0,1-33.29,6.21q-26.41,0-40.41-16t-14-46Q0,58.61,6.87,44.41A49.67,49.67,0,0,1,26.62,22.63q12.89-7.58,30.19-7.58,17.63,0,35.44,8.53L84,44.45A137.19,137.19,0,0,0,70.3,38.82,40.76,40.76,0,0,0,56.81,36.42Z"/><path d="M164.7,137.86l-29.14-95h-.75q1.58,29,1.57,38.67v56.31H113.45V16.79h34.94L177,109.37h.5l30.39-92.58h34.94V137.86H218.94V80.55q0-4,.13-9.35T220.19,43h-.75l-31.22,94.82Z"/><path class="cls-1" d="M664.68,0H272.54a15,15,0,0,0-15,15V139.65a15,15,0,0,0,15,15H664.68a15,15,0,0,0,15-15V15A15,15,0,0,0,664.68,0ZM357.78,122q-17,15.9-49.15,15.9H274.35V16.79h38q29.64,0,46,15.65t16.39,43.73Q374.79,106.05,357.78,122ZM469.61,37.83H425.55V64.41h41v21h-41v31.22h44.06v21.2H399.88V16.79h69.73Zm95,0H520.53V64.41h41v21h-41v31.22h44.06v21.2H494.86V16.79h69.73Zm100,100H589.84V16.79h25.67v99.87h49.11Z"/><path class="cls-1" d="M313.68,37.83H300v78.83h11q37.1,0,37.1-39.83Q348.13,37.83,313.68,37.83Z"/></g></g></svg>