<svg xmlns="http://www.w3.org/2000/svg" viewBox="0 0 45.37 42.52"><title>Middel 8</title><g id="Laag_2" data-name="Laag 2"><g id="Layer_1" data-name="Layer 1"><path d="M17.9,30.08a.7.7,0,0,0-.7.7.7.7,0,0,0,.7.71.71.71,0,0,0,.71-.71A.7.7,0,0,0,17.9,30.08Z"/><path d="M15.08,30.08a.7.7,0,0,0-.71.7.71.71,0,0,0,.71.71.7.7,0,0,0,.7-.71A.7.7,0,0,0,15.08,30.08Z"/><path d="M20.73,30.08a.7.7,0,0,0-.71.7.71.71,0,0,0,.71.71.7.7,0,0,0,.7-.71A.7.7,0,0,0,20.73,30.08Z"/><path d="M23.55,30.08a.7.7,0,0,0-.71.7.71.71,0,0,0,1.42,0A.7.7,0,0,0,23.55,30.08Z"/><path d="M26.37,30.08a.7.7,0,0,0-.7.7.7.7,0,0,0,.7.71.71.71,0,0,0,.71-.71A.7.7,0,0,0,26.37,30.08Z"/><circle cx="16.49" cy="27.96" r="0.71"/><circle cx="13.67" cy="27.96" r="0.71"/><circle cx="19.31" cy="27.96" r="0.71"/><path d="M15.08,25.84a.7.7,0,0,0,.7-.71.7.7,0,0,0-.7-.7.7.7,0,0,0-.71.7A.71.71,0,0,0,15.08,25.84Z"/><path d="M12.26,24.43a.7.7,0,0,0-.71.7.71.71,0,0,0,.71.71.7.7,0,0,0,.7-.71A.7.7,0,0,0,12.26,24.43Z"/><path d="M13.67,21.6a.71.71,0,1,0,0,1.42.71.71,0,0,0,0-1.42Z"/><path d="M12.26,20.19a.7.7,0,0,0,.7-.7.7.7,0,0,0-.7-.71.71.71,0,0,0-.71.71A.7.7,0,0,0,12.26,20.19Z"/><path d="M17.9,25.84a.71.71,0,0,0,.71-.71.7.7,0,0,0-.71-.7.7.7,0,0,0-.7.7A.7.7,0,0,0,17.9,25.84Z"/><path d="M36.41,6.12H14.06a.7.7,0,0,0-.7.7.7.7,0,0,0,.7.71H36.41a.7.7,0,0,0,.7-.71A.7.7,0,0,0,36.41,6.12Z"/><path d="M45.09,33.11c-.39-.74-2.57-5.82-2.57-26.29V1.18A1.17,1.17,0,0,0,41.35,0H8.65A1.17,1.17,0,0,0,7.48,1.18v2.2H5A1.17,1.17,0,0,0,3.79,4.55V7.48H1.18A1.17,1.17,0,0,0,0,8.65V14.3c0,28,3,28.17,4,28.22H36.71a1.17,1.17,0,0,0,1.18-1.17,1.13,1.13,0,0,0-.28-.76,11.44,11.44,0,0,1-.73-2.17h3.63a1.18,1.18,0,0,0,.9-1.93,8.07,8.07,0,0,1-.54-1.44h3.32a1.18,1.18,0,0,0,1.18-1.18A1.2,1.2,0,0,0,45.09,33.11ZM4.49,40.17c-.53-1-2.14-5.54-2.14-25.87V9.83H3.79v.37c0,28,3,28.17,4,28.22H34.48c.16.7.31,1.29.46,1.75Zm3.79-4.1c-.52-1-2.13-5.54-2.13-25.87V5.73H7.48V6.82c0,28,3,28.18,4,28.23h27c.1.38.19.73.29,1ZM12,32.7c-.52-1-2.13-5.55-2.13-25.88V2.35H40.17V6.82c0,16,1.34,23,2.25,25.87Z"/></g></g></svg>