<?xml version="1.0" encoding="utf-8"?>
<!-- Generator: Adobe Illustrator 23.0.6, SVG Export Plug-In . SVG Version: 6.00 Build 0)  -->
<svg version="1.1" id="Laag_1" xmlns="http://www.w3.org/2000/svg" xmlns:xlink="http://www.w3.org/1999/xlink" x="0px" y="0px"
	 viewBox="0 0 512 455.5" style="enable-background:new 0 0 512 455.5;" xml:space="preserve">
<g>
	<path d="M256,455.5c-7.3,0-14.3-2.6-19.8-7.4C215.5,430,195.6,413,178,398l-0.1-0.1C126.3,354,81.8,316,50.8,278.6
		C16.1,236.8,0,197.2,0,153.9C0,111.8,14.4,73,40.6,44.6C67.1,15.8,103.5,0,143,0c29.6,0,56.6,9.3,80.4,27.8
		c12.4,9.7,23.4,21.2,32.5,34c9.2-12.8,20.1-24.3,32.5-34C312.4,9.3,339.4,0,369,0c39.5,0,75.9,15.8,102.4,44.6
		C497.6,73,512,111.8,512,153.9c0,43.3-16.1,82.9-50.8,124.7c-31,37.4-75.5,75.4-127.1,119.3c-17.6,15-37.6,32-58.3,50.2
		C270.3,452.9,263.3,455.5,256,455.5z M143,30c-31,0-59.6,12.4-80.3,34.9C41.6,87.8,30,119.4,30,153.9c0,36.4,13.5,69,43.9,105.6
		c29.3,35.4,73,72.6,123.5,115.6l0.1,0.1c17.7,15,37.7,32.1,58.5,50.3c21-18.2,41-35.3,58.7-50.4c50.5-43,94.1-80.2,123.5-115.6
		c30.3-36.6,43.9-69.2,43.9-105.6c0-34.5-11.6-66.1-32.7-89C428.6,42.4,400,30,369,30c-22.8,0-43.6,7.2-62.1,21.5
		c-16.5,12.7-27.9,28.8-34.6,40c-5.4,9-17,11.9-26,6.6c-2.7-1.6-5-3.9-6.6-6.6c-6.7-11.2-18.2-27.3-34.6-40
		C186.7,37.2,165.8,30,143,30z"/>
	<path d="M161.1,131.1c5.2,0.7,9.9-2.9,10.6-8.1c0.7-5.2-2.9-9.9-8.1-10.6c-5.1-0.7-9.9,2.9-10.6,8
		C152.3,125.6,155.9,130.4,161.1,131.1C161,131.1,161.1,131.1,161.1,131.1z"/>
	<path d="M123.3,125.7c5.2,0.7,10-2.9,10.7-8.1c0.7-5.2-2.9-10-8.1-10.7c-5.2-0.7-10,2.9-10.7,8C114.5,120.2,118.1,125,123.3,125.7z
		"/>
	<path d="M85.6,120.3c5.2,0.7,10-2.9,10.7-8.1s-2.9-10-8.1-10.7c-5.2-0.7-9.9,2.9-10.7,8.1C76.8,114.8,80.4,119.5,85.6,120.3
		C85.6,120.3,85.6,120.3,85.6,120.3z"/>
	<path d="M188,211.5c5.2,0.8,10-2.8,10.7-8c0.8-5.2-2.8-10-8-10.7c-5.2-0.8-10,2.8-10.7,8c0,0,0,0,0,0
		C179.3,205.9,182.8,210.7,188,211.5z"/>
	<path d="M142.2,195.4c-0.8,5.2,2.8,10.1,8,10.9c5.2,0.8,10.1-2.8,10.9-8s-2.8-10.1-8-10.9c0,0-0.1,0-0.1,0
		C147.8,186.6,143,190.2,142.2,195.4z"/>
	<path d="M104.5,190c-0.8,5.2,2.8,10.1,8,10.9s10.1-2.8,10.9-8s-2.8-10.1-8-10.9c0,0-0.1,0-0.1,0C110.1,181.2,105.3,184.8,104.5,190
		C104.5,190,104.5,190,104.5,190z"/>
	<path d="M85.7,187.3c0.8-5.2-2.8-10.1-8-10.9c-5.2-0.8-10.1,2.8-10.9,8c-0.8,5.2,2.8,10.1,8,10.9c0,0,0.1,0,0.1,0
		C80,196,84.9,192.5,85.7,187.3z"/>
	<path d="M174.6,171.3c5.2,0.7,10-2.9,10.7-8.1c0.7-5.2-2.9-10-8.1-10.7c-5.2-0.7-9.9,2.9-10.7,8.1
		C165.7,165.8,169.3,170.6,174.6,171.3C174.5,171.3,174.5,171.3,174.6,171.3z"/>
	<path d="M136.9,165.9c5.2,0.7,9.9-2.9,10.6-8.1c0.7-5.2-2.9-9.9-8.1-10.6c-5.1-0.7-9.9,2.9-10.6,8
		C128,160.4,131.6,165.2,136.9,165.9C136.8,165.9,136.8,165.9,136.9,165.9z"/>
	<path d="M91,149.8c-0.8,5.2,2.8,10.1,8,10.9c5.2,0.8,10.1-2.8,10.9-8c0.8-5.2-2.8-10.1-8-10.9c0,0-0.1,0-0.1,0
		C96.6,141,91.8,144.6,91,149.8z"/>
	<path d="M53.3,144.4c-0.8,5.2,2.8,10.1,8,10.8c5.2,0.8,10.1-2.8,10.8-8s-2.8-10.1-8-10.8c0,0,0,0-0.1,0
		C58.9,135.6,54.1,139.2,53.3,144.4z"/>
	<path d="M109.8,85.5c5.2,0.7,9.9-2.9,10.7-8.1c0.7-5.2-2.9-9.9-8.1-10.7c-5.2-0.7-9.9,2.9-10.6,8C101.1,80,104.7,84.8,109.8,85.5z"
		/>
	<path d="M72.1,80.1c5.2,0.7,10-2.9,10.7-8.1c0.7-5.2-2.9-10-8.1-10.7c-5.2-0.7-9.9,2.9-10.6,8C63.3,74.6,66.9,79.4,72.1,80.1
		C72.1,80.1,72.1,80.1,72.1,80.1z"/>
	<path d="M215,291.9c5.2,0.7,9.9-2.9,10.6-8.1c0.7-5.2-2.9-9.9-8.1-10.6c-5.2-0.7-9.9,2.9-10.6,8C206.2,286.3,209.8,291.1,215,291.9
		C215,291.9,215,291.9,215,291.9z"/>
	<path d="M169.2,275.8c-0.8,5.2,2.8,10.1,8,10.9s10.1-2.8,10.9-8c0.8-5.2-2.8-10.1-8-10.9c0,0-0.1,0-0.1,0
		C174.8,267,170,270.6,169.2,275.8z"/>
	<path d="M142.2,262.3c-5.2-0.7-10,2.9-10.7,8.1s2.9,10,8.1,10.7c5.2,0.7,9.9-2.9,10.6-8.1C151.1,267.9,147.5,263.1,142.2,262.3
		C142.3,262.3,142.3,262.3,142.2,262.3z"/>
	<path d="M93.8,264.9c-0.8,5.2,2.8,10,8,10.8c5.2,0.8,10-2.8,10.8-8s-2.8-10-8-10.8c0,0,0,0-0.1,0C99.4,256.2,94.6,259.7,93.8,264.9
		C93.8,264.9,93.8,264.9,93.8,264.9z"/>
	<path d="M201.5,251.7c5.2,0.7,10-2.9,10.7-8.1c0.7-5.2-2.9-10-8.1-10.7c-5.2-0.7-9.9,2.9-10.7,8C192.7,246.2,196.3,251,201.5,251.7
		z"/>
	<path d="M155.7,235.6c-0.8,5.2,2.8,10.1,8,10.8c5.2,0.8,10.1-2.8,10.8-8s-2.8-10.1-8-10.8c0,0,0,0-0.1,0
		C161.3,226.8,156.5,230.4,155.7,235.6z"/>
	<path d="M128.8,222.1c-5.2-0.7-10,2.9-10.7,8.1c-0.7,5.2,2.9,10,8.1,10.7c5.2,0.7,9.9-2.9,10.7-8
		C137.6,227.7,134,222.9,128.8,222.1z"/>
	<path d="M91,216.7c-5.2-0.7-10,2.9-10.7,8.1c-0.7,5.2,2.9,10,8.1,10.7c5.2,0.7,9.9-2.9,10.7-8C99.8,222.3,96.2,217.5,91,216.7z"/>
	<path d="M196.2,356.1c-0.8,5.2,2.8,10,8,10.8c5.2,0.8,10-2.8,10.8-8s-2.8-10-8-10.8c0,0,0,0-0.1,0C201.8,347.4,197,351,196.2,356.1
		z"/>
	<path d="M166.5,361.5c5.2,0.7,10-2.9,10.7-8.1c0.7-5.2-2.9-10-8.1-10.7c-5.2-0.7-9.9,2.9-10.7,8.1
		C157.7,355.9,161.4,360.7,166.5,361.5z"/>
	<path d="M182.7,316c-0.8,5.2,2.8,10.1,8,10.9c5.2,0.8,10.1-2.8,10.9-8c0.8-5.2-2.8-10.1-8-10.9c0,0-0.1,0-0.1,0
		C188.3,307.2,183.5,310.8,182.7,316z"/>
	<path d="M155.8,302.5c-5.2-0.7-10,2.9-10.7,8.1s2.9,10,8.1,10.7c5.2,0.7,9.9-2.9,10.7-8C164.6,308.1,161,303.3,155.8,302.5
		C155.8,302.5,155.8,302.5,155.8,302.5z"/>
	<path d="M107.2,305.1c-0.8,5.2,2.8,10.1,8,10.9c5.2,0.8,10.1-2.8,10.9-8c0.8-5.2-2.8-10.1-8-10.9c0,0,0,0-0.1,0
		C112.9,296.4,108,299.9,107.2,305.1C107.2,305.1,107.2,305.1,107.2,305.1z"/>
	<path d="M56.1,259.5c-0.8,5.2,2.8,10,8,10.8c5.2,0.8,10-2.8,10.8-8c0.8-5.2-2.8-10-8-10.8c0,0,0,0-0.1,0
		C61.7,250.7,56.9,254.3,56.1,259.5C56.1,259.5,56.1,259.5,56.1,259.5z"/>
	<path d="M228.5,332.1c5.2,0.7,10-2.9,10.7-8.1s-2.9-10-8.1-10.7c-5.2-0.7-9.9,2.9-10.7,8C219.7,326.6,223.3,331.3,228.5,332.1z"/>
	<path d="M255.5,412.5c5.2,0.7,9.9-2.9,10.7-8.1c0.7-5.2-2.9-9.9-8.1-10.7c-5.2-0.7-9.9,2.9-10.6,8
		C246.7,406.9,250.3,411.7,255.5,412.5C255.5,412.5,255.5,412.5,255.5,412.5z"/>
	<path d="M209.6,396.4c-0.8,5.2,2.8,10.1,8,10.9c5.2,0.8,10.1-2.8,10.9-8c0.8-5.2-2.8-10.1-8-10.9c0,0,0,0-0.1,0
		C215.2,387.6,210.4,391.2,209.6,396.4z"/>
	<path d="M242,372.3c5.2,0.7,10-2.9,10.7-8.1c0.7-5.2-2.9-10-8.1-10.7c-5.2-0.7-9.9,2.9-10.7,8C233.2,366.8,236.8,371.6,242,372.3z"
		/>
	<path d="M134.1,50.7c5.2,0.7,9.9-3,10.6-8.1s-3-9.9-8.1-10.6c-5.1-0.7-9.9,2.9-10.6,8C125.3,45.2,128.9,50,134.1,50.7
		C134.1,50.7,134.1,50.7,134.1,50.7z"/>
	<path d="M96.4,45.3c5.2,0.7,10-2.9,10.7-8.1c0.7-5.2-2.9-10-8.1-10.7c-5.2-0.7-9.9,2.9-10.7,8C87.6,39.8,91.2,44.6,96.4,45.3z"/>
	<path d="M147.6,90.9c5.2,0.7,10-2.9,10.7-8.1s-2.9-10-8.1-10.7c-5.2-0.7-9.9,2.9-10.7,8C138.8,85.4,142.4,90.2,147.6,90.9
		C147.6,90.9,147.6,90.9,147.6,90.9z"/>
	<path d="M109.9,85.5c5.2,0.7,9.9-2.9,10.6-8.1c0.7-5.2-2.9-9.9-8.1-10.6c-5.1-0.7-9.9,2.9-10.6,8C101.1,80,104.6,84.8,109.9,85.5
		C109.8,85.5,109.9,85.5,109.9,85.5z"/>
	<path d="M47.9,114.9c5.2,0.7,10-2.9,10.7-8.1s-2.9-10-8.1-10.7c-5.2-0.7-9.9,2.9-10.7,8C39,109.3,42.6,114.1,47.9,114.9
		C47.8,114.9,47.8,114.9,47.9,114.9z"/>
	<path d="M66.8,184.5c-0.8,5.2,2.8,10.1,8,10.9s10.1-2.8,10.9-8s-2.8-10.1-8-10.9c0,0-0.1,0-0.1,0C72.4,175.8,67.6,179.3,66.8,184.5
		z"/>
	<path d="M47.9,181.8c0.8-5.2-2.8-10.1-8-10.9s-10.1,2.8-10.9,8c-0.8,5.2,2.8,10.1,8,10.9c0,0,0,0,0.1,0
		C42.3,190.6,47.1,187,47.9,181.8z"/>
	<path d="M53.3,144.4c-0.8,5.2,2.8,10.1,8,10.9c5.2,0.8,10.1-2.8,10.9-8c0.8-5.2-2.8-10.1-8-10.9c0,0-0.1,0-0.1,0
		C58.8,135.6,54,139.2,53.3,144.4z"/>
	<path d="M15.6,138.9c-0.8,5.2,2.8,10,8,10.8c5.2,0.8,10-2.8,10.8-8s-2.8-10-8-10.8c0,0,0,0-0.1,0C21.2,130.2,16.3,133.7,15.6,138.9
		z"/>
	<path d="M91,216.7c-5.2-0.7-10,2.9-10.7,8.1c-0.7,5.2,2.9,10,8.1,10.7c5.2,0.7,9.9-2.9,10.7-8C99.8,222.2,96.2,217.4,91,216.7z"/>
	<path d="M53.3,211.3c-5.2-0.7-10,2.9-10.7,8.1c-0.7,5.2,2.9,10,8.1,10.7c5.2,0.7,9.9-2.9,10.7-8.1C62.1,216.8,58.5,212,53.3,211.3z
		"/>
</g>
</svg>
