<svg xmlns="http://www.w3.org/2000/svg" viewBox="0 0 35.66 56.46"><title>Middel 9</title><g id="Laag_2" data-name="Laag 2"><g id="Layer_1" data-name="Layer 1"><path d="M30,.36h-1.3A.36.36,0,0,0,28.32,0H24.75a.36.36,0,0,0-.36.35H1.07A1.07,1.07,0,0,0,0,1.43v49a1.07,1.07,0,0,0,1.07,1.07H4.56L4.5,55.73a.73.73,0,0,0,.37.64.69.69,0,0,0,.73,0l1.1-.71.94.69a.76.76,0,0,0,.43.14.87.87,0,0,0,.31-.07.73.73,0,0,0,.4-.63l.13-4.24H24.39v.12a.36.36,0,0,0,.36.36h3.57a.36.36,0,0,0,.36-.36v-.12H30a5.68,5.68,0,0,0,5.68-5.68V6A5.68,5.68,0,0,0,30,.36Zm-22.57,38a.78.78,0,0,0-1.56,0H2.14V21.08h.62a.29.29,0,0,0,0,.09.78.78,0,1,0,1.55,0s0-.06,0-.09H24.39V38.39ZM28.68,21.08h4.84V38.39H28.68ZM30,2.5A3.54,3.54,0,0,1,33.52,6V19.65H28.68V2.5Zm-5.59,0V19.65H2.14V2.5Zm-17,51.86-.24-.18a.72.72,0,0,0-.81,0L6,54.42l0-2.9H7.48Zm-5.25-5V39.82H24.39v9.56Zm27.84,0h-1.3V39.82h4.84v6A3.55,3.55,0,0,1,30,49.38Z"/><path d="M3.51,23.52a.78.78,0,1,0,.78.78A.78.78,0,0,0,3.51,23.52Z"/><path d="M3.51,26.65a.79.79,0,1,0,.78.78A.78.78,0,0,0,3.51,26.65Z"/><path d="M6.63,23.52a.79.79,0,1,0-.78-.78A.78.78,0,0,0,6.63,23.52Z"/><path d="M6.63,25.08a.79.79,0,1,0,.78.79A.78.78,0,0,0,6.63,25.08Z"/><path d="M6.63,28.22a.78.78,0,1,0,.78.78A.78.78,0,0,0,6.63,28.22Z"/><path d="M3.51,29.78a.79.79,0,1,0,.78.78A.78.78,0,0,0,3.51,29.78Z"/><path d="M3.51,32.91a.79.79,0,0,0-.77.79.78.78,0,1,0,1.55,0A.79.79,0,0,0,3.51,32.91Z"/><path d="M3.51,36.05a.78.78,0,1,0,.78.78A.78.78,0,0,0,3.51,36.05Z"/><path d="M6.63,31.35a.78.78,0,1,0,.78.78A.78.78,0,0,0,6.63,31.35Z"/><path d="M6.63,34.48a.78.78,0,0,0-.78.78.78.78,0,1,0,1.56,0A.78.78,0,0,0,6.63,34.48Z"/></g></g></svg>