<?xml version="1.0" encoding="utf-8"?>
<!-- Generator: Adobe Illustrator 23.0.6, SVG Export Plug-In . SVG Version: 6.00 Build 0)  -->
<svg version="1.1" id="Laag_1" xmlns="http://www.w3.org/2000/svg" xmlns:xlink="http://www.w3.org/1999/xlink" x="0px" y="0px"
	 viewBox="0 0 50.1 50" style="enable-background:new 0 0 50.1 50;" xml:space="preserve">
<g>
	<path d="M44,6.1C40.2,2.3,35.8,0,32.5,0c-1.3-0.1-2.6,0.4-3.5,1.3c-1.5,1.5-1.7,3.9-0.6,6.9c0.2,0.5,0.4,1,0.6,1.4l-6.7,6.5
		c-1.3-0.5-2.7-0.7-4.2-0.8c-5.9,0-10.4,4.3-10.6,4.5c-0.1,0.1-0.2,0.3-0.3,0.4c-0.1,0.2-1.9,6,4.9,14.4l-10.1,10
		c0,0-0.1,0.1-0.1,0.1L0,49.5c0,0.1,0,0.3,0.1,0.4C0.1,50,0.2,50,0.3,50c0,0,0.1,0,0.1,0l5-2.1l0.1-0.1l9.9-9.6
		c3.3,2.9,7.6,4.5,12,4.5c1,0,2-0.1,2.9-0.3c0.2-0.1,0.4-0.2,0.5-0.3c3.1-3.6,5.6-8.1,2.5-14.5L40,21c1.6,0.9,3.5,1.4,5.3,1.5
		c1.3,0.1,2.6-0.4,3.6-1.3C51.7,18.3,49.6,11.6,44,6.1z M30.8,12.9c-0.2,0-0.5,0-0.6,0.2c-0.3,0.3-0.3,0.8,0,1.1c0,0,0,0,0,0
		c0.3,0.3,0.8,0.3,1.1,0c0.1-0.1,0.2-0.3,0.2-0.4c0.4,0.5,0.8,0.9,1.2,1.4c-0.1,0-0.2,0.1-0.2,0.2c-0.3,0.3-0.3,0.8,0,1.1
		c0,0,0,0,0,0c0.3,0.3,0.8,0.3,1.1,0c0.1-0.1,0.1-0.1,0.1-0.2c0.1,0,0.1,0.1,0.2,0.2c0.3,0.4,0.7,0.7,1,1c-0.1,0-0.2,0.1-0.2,0.1
		c-0.3,0.3-0.3,0.8,0,1.1c0.3,0.3,0.8,0.3,1.1,0c0.1-0.1,0.2-0.2,0.2-0.4c0.6,0.5,1.2,0.9,1.7,1.3c-0.4-0.2-0.8,0-1,0.4
		c-0.1,0.3-0.1,0.7,0.2,0.9c0.1,0,0.1,0.1,0.2,0.1l-3.4,3.4c0-0.1-0.1-0.1-0.1-0.2c-0.3-0.3-0.8-0.3-1.1,0c-0.3,0.3-0.3,0.8,0,1.1
		c0.1,0,0.1,0.1,0.2,0.1l-3.4,3.4c0-0.1-0.1-0.1-0.1-0.2c-0.3-0.3-0.8-0.3-1.1,0s-0.3,0.8,0,1.1c-4-1.2-7-4.4-8-8.4l2.2-2.1
		c0,0.2,0.1,0.4,0.2,0.6c0.3,0.3,0.8,0.3,1.1,0c0.3-0.3,0.3-0.8,0-1.1c0,0,0,0,0,0c-0.1-0.1-0.3-0.2-0.5-0.2l3.7-3.5
		c0,0.2,0.1,0.3,0.2,0.4c0.3,0.3,0.8,0.3,1.1,0c0.3-0.3,0.3-0.8,0-1.1c0,0,0,0,0,0C27.7,14,27.5,14,27.4,14l2.5-2.4
		C30.2,12,30.5,12.4,30.8,12.9z M29.6,40.4c-0.7,0.1-1.4,0.2-2.1,0.2c-4.9-0.1-9.6-2.3-12.7-6c-6.4-7.2-5.9-12.3-5.7-13.4
		c0.9-0.8,4.5-3.6,8.9-3.6c0.8,0,1.6,0.1,2.4,0.3L18,20.1c-0.3,0.3-0.4,0.6-0.3,1C19.9,30.6,28,31.9,28.4,32h0.1
		c0.3,0,0.6-0.1,0.8-0.3l2.5-2.5C33.8,33.6,32.4,37.1,29.6,40.4z M38,19.9c0-0.1-0.1-0.1-0.1-0.1L38,19.9L38,19.9z M47.3,19.6
		c-0.6,0.5-1.3,0.7-2,0.7c-2.8,0-6.7-2.1-10-5.5c-2.2-2.1-3.9-4.6-5-7.4c-0.8-2.1-0.7-3.8,0.2-4.7c0.5-0.5,1.3-0.7,2-0.7
		c2.8,0,6.7,2.1,10,5.5C47.5,12.6,49,17.9,47.3,19.6L47.3,19.6z"/>
	<path d="M21.3,21.9c-0.3,0.4-0.2,0.8,0.2,1.1c0.3,0.2,0.7,0.2,0.9,0c0.3-0.3,0.3-0.8,0-1.1C22.1,21.6,21.6,21.6,21.3,21.9z"/>
	<path d="M23.5,24.1c-0.3,0.3-0.3,0.8,0,1.1c0,0,0,0,0,0c0.3,0.3,0.8,0.3,1.1,0c0.3-0.3,0.3-0.8,0-1.1
		C24.3,23.8,23.8,23.8,23.5,24.1z"/>
	<path d="M25.7,26.4c-0.3,0.3-0.3,0.8,0,1.1c0,0,0,0,0,0c0.3,0.3,0.8,0.4,1.1,0.1s0.4-0.8,0.1-1.1c0,0-0.1-0.1-0.1-0.1
		C26.5,26.1,26,26.1,25.7,26.4z"/>
	<path d="M25.7,20.8c-0.3-0.3-0.8-0.3-1.1,0c-0.3,0.3-0.3,0.8,0,1.1s0.8,0.3,1.1,0c0,0,0,0,0,0C26,21.6,26,21.1,25.7,20.8z"/>
	<path d="M26.8,23c-0.3,0.3-0.3,0.8,0,1.1c0.3,0.3,0.8,0.3,1.1,0c0.3-0.3,0.3-0.8,0-1.1C27.6,22.7,27.1,22.7,26.8,23
		C26.8,23,26.8,23,26.8,23z"/>
	<path d="M29,25.3c-0.3,0.3-0.3,0.8,0,1.1c0,0,0,0,0,0c0.3,0.3,0.8,0.3,1.1,0c0.3-0.3,0.3-0.8,0-1.1C29.8,25,29.3,25,29,25.3z"/>
	<path d="M26.8,18.6c0.3-0.3,0.3-0.8,0-1.1c0,0,0,0,0,0c-0.3-0.3-0.8-0.4-1.1-0.1s-0.4,0.8-0.1,1.1c0,0,0.1,0.1,0.1,0.1
		C26,18.9,26.5,18.9,26.8,18.6C26.8,18.6,26.8,18.6,26.8,18.6z"/>
	<path d="M27.9,20.8c0.3,0.3,0.8,0.3,1.1,0c0.3-0.3,0.3-0.8,0-1.1c0,0,0,0,0,0c-0.3-0.3-0.8-0.3-1.1,0C27.6,20,27.6,20.5,27.9,20.8
		L27.9,20.8z"/>
	<path d="M30.1,23c0.3,0.3,0.8,0.3,1.1,0c0.3-0.3,0.3-0.8,0-1.1c-0.3-0.3-0.8-0.3-1.1,0C29.8,22.2,29.8,22.7,30.1,23z"/>
	<path d="M30.1,17.5c0.3-0.3,0.3-0.8,0-1.1c0,0,0,0,0,0c-0.3-0.3-0.8-0.3-1.1,0c-0.3,0.3-0.3,0.8,0,1.1
		C29.3,17.8,29.8,17.8,30.1,17.5C30.1,17.5,30.1,17.5,30.1,17.5z"/>
	<path d="M32.3,19.7c0.3-0.3,0.3-0.8,0-1.1c-0.3-0.3-0.8-0.3-1.1,0c-0.3,0.3-0.3,0.8,0,1.1C31.5,20,32,20,32.3,19.7z"/>
	<path d="M34.5,22c0.3-0.3,0.3-0.8,0-1.1c0,0,0,0,0,0c-0.3-0.3-0.8-0.3-1.1,0c-0.3,0.3-0.3,0.8,0,1.1C33.7,22.3,34.2,22.3,34.5,22z"
		/>
</g>
</svg>
