<svg xmlns="http://www.w3.org/2000/svg" viewBox="0 0 27.6 45.47"><title>Middel 12</title><g id="Laag_2" data-name="Laag 2"><g id="Layer_1" data-name="Layer 1"><path d="M3.6,24.42a.7.7,0,0,0,.7-.71.7.7,0,0,0-.7-.7.7.7,0,0,0-.71.7A.71.71,0,0,0,3.6,24.42Z"/><path d="M6.42,23a.7.7,0,0,0-.71.7.71.71,0,0,0,1.42,0A.7.7,0,0,0,6.42,23Z"/><path d="M9.24,23a.7.7,0,0,0-.7.7.7.7,0,0,0,.7.71.71.71,0,0,0,.71-.71A.7.7,0,0,0,9.24,23Z"/><path d="M5,25.83a.7.7,0,0,0-.71.7.71.71,0,0,0,.71.71.7.7,0,0,0,.7-.71A.7.7,0,0,0,5,25.83Z"/><circle cx="7.83" cy="26.54" r="0.71"/><path d="M3.6,18.77a.7.7,0,0,0,.7-.71.7.7,0,0,0-.7-.7.7.7,0,0,0-.71.7A.71.71,0,0,0,3.6,18.77Z"/><path d="M6.42,18.77a.71.71,0,0,0,.71-.71.71.71,0,0,0-1.42,0A.71.71,0,0,0,6.42,18.77Z"/><path d="M9.24,18.77a.71.71,0,0,0,.71-.71.7.7,0,0,0-.71-.7.7.7,0,0,0-.7.7A.7.7,0,0,0,9.24,18.77Z"/><path d="M12.07,18.77a.7.7,0,0,0,.7-.71.7.7,0,0,0-.7-.7.7.7,0,0,0-.71.7A.71.71,0,0,0,12.07,18.77Z"/><path d="M5,21.59a.7.7,0,0,0,.7-.7.7.7,0,0,0-.7-.71.71.71,0,0,0-.71.71A.7.7,0,0,0,5,21.59Z"/><path d="M7.83,21.59a.7.7,0,0,0,.71-.7.71.71,0,0,0-.71-.71.7.7,0,0,0-.7.71A.7.7,0,0,0,7.83,21.59Z"/><path d="M10.66,20.18a.71.71,0,0,0-.71.71.7.7,0,0,0,.71.7.7.7,0,0,0,.7-.7A.7.7,0,0,0,10.66,20.18Z"/><path d="M14.89,18.77a.71.71,0,0,0,.71-.71.7.7,0,0,0-.71-.7.7.7,0,0,0-.7.7A.7.7,0,0,0,14.89,18.77Z"/><path d="M10.66,16a.71.71,0,0,0,0-1.42.71.71,0,1,0,0,1.42Z"/><circle cx="13.48" cy="15.24" r="0.71"/><path d="M5,16a.71.71,0,0,0,0-1.42A.71.71,0,0,0,5,16Z"/><circle cx="7.83" cy="15.24" r="0.71"/><path d="M27.6,12.37a1.18,1.18,0,0,0-1.18-1.18h-.66V3.46A3.69,3.69,0,0,0,21.89,0,3.68,3.68,0,0,0,18,3.46v7.73H9.6V3.46A3.68,3.68,0,0,0,5.74,0,3.68,3.68,0,0,0,1.87,3.46v7.73H1.18A1.18,1.18,0,0,0,0,12.37V24.43a.66.66,0,0,0,0,.14c0,.14,0,.28,0,.42A13.83,13.83,0,0,0,8.07,37.53v6.76a1.18,1.18,0,0,0,1.18,1.18h9.07a1.18,1.18,0,0,0,1.18-1.18V37.54A13.82,13.82,0,0,0,27.6,25c0-.14,0-.28,0-.42s0-.09,0-.14ZM20.38,3.46c0-.6.69-1.11,1.51-1.11s1.52.51,1.52,1.11v7.73h-3Zm-16.16,0c0-.6.7-1.11,1.52-1.11s1.51.51,1.51,1.11v7.73h-3ZM17.15,43.12H10.42V38.35a13.44,13.44,0,0,0,3.38.44,13.79,13.79,0,0,0,3.35-.43Zm8.09-18.86a1.62,1.62,0,0,0,0,.22c0,.17,0,.34,0,.51A11.45,11.45,0,0,1,2.35,25c0-.17,0-.34,0-.5a1.79,1.79,0,0,0,0-.23V13.54H25.24Z"/></g></g></svg>