<svg xmlns="http://www.w3.org/2000/svg" viewBox="0 0 44.31 42.76"><title>Middel 11</title><g id="Laag_2" data-name="Laag 2"><g id="Layer_1" data-name="Layer 1"><path d="M15.15,37.61a.58.58,0,1,0,.79-.18A.57.57,0,0,0,15.15,37.61Z"/><path d="M20.27,38.12a.58.58,0,0,0,.18.8.59.59,0,0,0,.79-.18.58.58,0,0,0-.18-.8A.57.57,0,0,0,20.27,38.12Z"/><path d="M17.35,36.28a.57.57,0,1,0-.79.18A.57.57,0,0,0,17.35,36.28Z"/><path d="M16.59,39.62a.57.57,0,1,0,.79-.18A.57.57,0,0,0,16.59,39.62Z"/><path d="M17.71,37.87a.57.57,0,1,0,.79-.18A.57.57,0,0,0,17.71,37.87Z"/><path d="M13.27,37.9a.57.57,0,1,0,.18.79A.57.57,0,0,0,13.27,37.9Z"/><path d="M21.49,36.18a.58.58,0,0,0,1,.61.57.57,0,0,0-.18-.79A.58.58,0,0,0,21.49,36.18Z"/><path d="M22.72,34.23a.58.58,0,0,0,.18.8.59.59,0,0,0,.79-.18.58.58,0,0,0-.18-.8A.57.57,0,0,0,22.72,34.23Z"/><path d="M24,32.29a.57.57,0,1,0,.79-.18A.57.57,0,0,0,24,32.29Z"/><path d="M25.17,30.34a.58.58,0,0,0,1,.62.58.58,0,1,0-1-.62Z"/><path d="M26.4,28.4a.57.57,0,1,0,.79-.18A.57.57,0,0,0,26.4,28.4Z"/><path d="M27.63,26.45a.58.58,0,0,0,.18.8.59.59,0,0,0,.79-.18.58.58,0,0,0-.18-.8A.57.57,0,0,0,27.63,26.45Z"/><path d="M28.86,24.51a.57.57,0,1,0,.79-.18A.57.57,0,0,0,28.86,24.51Z"/><path d="M25.28,34.49a.57.57,0,1,0,.79-.18A.57.57,0,0,0,25.28,34.49Z"/><path d="M26.51,32.54a.57.57,0,0,0,.18.79.57.57,0,1,0,.61-1A.57.57,0,0,0,26.51,32.54Z"/><path d="M27.73,30.6a.57.57,0,0,0,.18.79.58.58,0,1,0-.18-.79Z"/><path d="M29,28.65a.57.57,0,0,0,.18.79.57.57,0,1,0,.61-1A.57.57,0,0,0,29,28.65Z"/><path d="M30.19,26.71a.57.57,0,1,0,.79-.18A.57.57,0,0,0,30.19,26.71Z"/><path d="M31.41,24.76a.58.58,0,0,0,.18.79.59.59,0,0,0,.8-.17.58.58,0,1,0-1-.62Z"/><path d="M30.08,22.56a.58.58,0,1,0,1,.62.59.59,0,0,0-.17-.8A.58.58,0,0,0,30.08,22.56Z"/><path d="M18.94,35.92a.58.58,0,0,0,.18.8.59.59,0,0,0,.79-.18.58.58,0,0,0-.18-.8A.57.57,0,0,0,18.94,35.92Z"/><path d="M20.16,34a.57.57,0,1,0,1,.61.57.57,0,1,0-1-.61Z"/><path d="M22.36,32.65a.58.58,0,0,0-.18-.8.57.57,0,0,0-.79.18.58.58,0,1,0,1,.62Z"/><path d="M23.59,30.7a.57.57,0,1,0-.79.18A.57.57,0,0,0,23.59,30.7Z"/><path d="M24.82,28.76a.59.59,0,0,0-.18-.8.58.58,0,1,0-.62,1A.59.59,0,0,0,24.82,28.76Z"/><path d="M26,26.81a.57.57,0,1,0-.79.18A.57.57,0,0,0,26,26.81Z"/><path d="M27.27,24.87a.58.58,0,0,0-.18-.8.57.57,0,0,0-.79.18.58.58,0,1,0,1,.62Z"/><path d="M28.5,22.92a.57.57,0,0,0-.18-.79.58.58,0,0,0-.8.18.59.59,0,0,0,.18.79A.58.58,0,0,0,28.5,22.92Z"/><path d="M31.31,20.62a.57.57,0,1,0,.79-.18A.57.57,0,0,0,31.31,20.62Z"/><path d="M32.54,18.67a.58.58,0,0,0,.18.8.59.59,0,0,0,.79-.18.58.58,0,0,0-.18-.8A.57.57,0,0,0,32.54,18.67Z"/><path d="M33.76,16.73a.57.57,0,0,0,.18.79.58.58,0,1,0-.18-.79Z"/><path d="M35,14.78a.58.58,0,1,0,.79-.18A.57.57,0,0,0,35,14.78Z"/><path d="M36.22,12.84a.57.57,0,1,0,.79-.18A.57.57,0,0,0,36.22,12.84Z"/><path d="M37.44,10.89a.6.6,0,0,0,.18.8.59.59,0,0,0,.8-.18.58.58,0,0,0-1-.62Z"/><path d="M38.67,9a.57.57,0,1,0,.79-.18A.57.57,0,0,0,38.67,9Z"/><path d="M32.64,22.82a.57.57,0,1,0,.79-.18A.57.57,0,0,0,32.64,22.82Z"/><path d="M33.87,20.87a.58.58,0,0,0,.18.8.59.59,0,0,0,.79-.18.58.58,0,0,0-.18-.8A.57.57,0,0,0,33.87,20.87Z"/><path d="M35.09,18.93a.59.59,0,0,0,.18.79.58.58,0,0,0,.8-.18.57.57,0,0,0-.18-.79A.58.58,0,0,0,35.09,18.93Z"/><path d="M39.9,7a.58.58,0,1,0,.79-.18A.57.57,0,0,0,39.9,7Z"/><path d="M36,4.55a.57.57,0,1,0,.79-.18A.57.57,0,0,0,36,4.55Z"/><path d="M29.72,21a.58.58,0,0,0-.18-.8.57.57,0,0,0-.79.18.58.58,0,1,0,1,.62Z"/><path d="M31,19a.57.57,0,1,0-.79.18A.57.57,0,0,0,31,19Z"/><path d="M32.18,17.09a.58.58,0,0,0-1-.62.6.6,0,0,0,.18.8A.58.58,0,0,0,32.18,17.09Z"/><path d="M32.43,14.53a.57.57,0,1,0,1,.61.57.57,0,1,0-1-.61Z"/><path d="M33.66,12.58a.58.58,0,0,0,.18.8.57.57,0,0,0,.79-.18.58.58,0,0,0-.18-.8A.57.57,0,0,0,33.66,12.58Z"/><path d="M34.89,10.64a.57.57,0,1,0,.79-.18A.57.57,0,0,0,34.89,10.64Z"/><path d="M36.11,8.69a.58.58,0,1,0,1,.62.6.6,0,0,0-.18-.8A.58.58,0,0,0,36.11,8.69Z"/><path d="M37.34,6.75a.57.57,0,1,0,.79-.18A.57.57,0,0,0,37.34,6.75Z"/><path d="M8.55,31.9,9,32l.31,0a3.25,3.25,0,0,0,.44,0,1.82,1.82,0,0,0,.33,0,3.4,3.4,0,0,0,.45,0l.26,0,0,0c2.65-.42,5.58-2.61,7.74-6h0c.18-.29.36-.59.53-.91,2.38-4.27,2.74-8.71,1.19-11.36a.56.56,0,0,1-.05-.08L20,13.25l-.12-.15c-.12-.14-.24-.29-.37-.42l-.29-.26L19,12.28a5.8,5.8,0,0,0-.52-.34c-3.32-1.85-8.4,1-11.46,6.45a15.7,15.7,0,0,0-2.12,7.66c.05,2.59,1,4.54,2.71,5.48a3.89,3.89,0,0,0,.66.29Zm5.68-8.49a22.1,22.1,0,0,1,5.05-6.21,13.7,13.7,0,0,1-1.86,6.94c-.16.28-.32.55-.49.82h0a12.35,12.35,0,0,1-5.08,4.78A22.7,22.7,0,0,1,14.23,23.41Z"/><path d="M43.61,4.81,39.47,3.64,35.12.21a1,1,0,0,0-.9-.16,1,1,0,0,0-.62.68,66.49,66.49,0,0,1-3.46,11c.15-.32-.14.34,0,0a4.17,4.17,0,0,0-.61-.38L21.79,7l-.33-.14.17.09C16,3.86,7.76,8,3,16.48A22.45,22.45,0,0,0,0,28.66c.29,4,2,7.08,4.77,8.63l.62.31c1.49.83,5.83,3.27,7.28,4.07,5.41,3,12.81-.36,18.85-8.58.6-.82,1.26-1.79,1.95-2.89h0a112,112,0,0,0,6.46-12A99.09,99.09,0,0,0,44.27,6,1,1,0,0,0,43.61,4.81ZM28.6,13a8.08,8.08,0,0,1,.75.49c-1,2.12-2.06,4.21-3.14,6.17a18.9,18.9,0,0,0,.19-4.09,13.35,13.35,0,0,0-1-4.38h0ZM6.3,35.89l.27.1c-.18-.07-.34-.15-.51-.23l-.19-.11a.77.77,0,0,0-.19-.08c-2.17-1.24-3.49-3.73-3.73-7A20.49,20.49,0,0,1,4.72,17.41c.22-.4.46-.79.7-1.17,4.21-6.68,10.92-10,15.28-7.58,2.2,1.22,3.55,3.74,3.79,7.08A20.44,20.44,0,0,1,21.75,26.8c-3.87,5.21-7.43,8.31-10.64,9.3A7.58,7.58,0,0,1,6.6,36a5.25,5.25,0,0,0,.67.22A5.84,5.84,0,0,1,6.3,35.89ZM38.23,17.4a111.08,111.08,0,0,1-6.34,11.78c-.67,1.06-1.3,2-1.87,2.78-5.43,7.39-11.86,10.54-16.38,8l-3.15-1.76c4-.73,8.28-4.19,12.84-10.35a85.72,85.72,0,0,0,8.13-14.35A78.75,78.75,0,0,0,35.09,2.62l3.34,2.65a1.29,1.29,0,0,0,.33.17l3.4,1A90.81,90.81,0,0,1,38.23,17.4Z"/></g></g></svg>