<svg xmlns="http://www.w3.org/2000/svg" viewBox="0 0 39.95 53.89"><title>Middel 10</title><g id="Laag_2" data-name="Laag 2"><g id="Layer_1" data-name="Layer 1"><path d="M12,18.5a.78.78,0,1,0,.78.78A.78.78,0,0,0,12,18.5Z"/><path d="M21.34,18.5a.78.78,0,1,0,.78.78A.78.78,0,0,0,21.34,18.5Z"/><path d="M4.12,15.39a.78.78,0,1,0,.78.78A.78.78,0,0,0,4.12,15.39Z"/><path d="M7.25,15.39a.78.78,0,1,0,.78.78A.78.78,0,0,0,7.25,15.39Z"/><path d="M10.38,15.39a.78.78,0,1,0,.78.78A.78.78,0,0,0,10.38,15.39Z"/><path d="M16.64,15.39a.78.78,0,0,0,0,1.56.78.78,0,1,0,0-1.56Z"/><path d="M19.77,15.39a.78.78,0,1,0,.79.78A.78.78,0,0,0,19.77,15.39Z"/><path d="M22.9,15.39a.78.78,0,1,0,.79.78A.79.79,0,0,0,22.9,15.39Z"/><path d="M24.47,18.5a.78.78,0,1,0,.78.78A.78.78,0,0,0,24.47,18.5Z"/><path d="M26,15.39A.78.78,0,1,0,26,17a.78.78,0,0,0,0-1.56Z"/><path d="M35.43,21.62a.78.78,0,1,0,.78.77A.78.78,0,0,0,35.43,21.62Z"/><path d="M27.6,18.5a.78.78,0,1,0,0,1.56.78.78,0,1,0,0-1.56Z"/><path d="M29.17,15.39a.78.78,0,1,0,.78.78A.78.78,0,0,0,29.17,15.39Z"/><path d="M30.73,18.5a.78.78,0,1,0,0,1.56.78.78,0,1,0,0-1.56Z"/><path d="M33.87,18.5a.78.78,0,1,0,.78.78A.78.78,0,0,0,33.87,18.5Z"/><path d="M32.3,15.39a.78.78,0,1,0,.78.78A.78.78,0,0,0,32.3,15.39Z"/><path d="M35.43,17a.78.78,0,1,0-.78-.78A.78.78,0,0,0,35.43,17Z"/><path d="M5.68,12.28a.78.78,0,1,0,.78.78A.78.78,0,0,0,5.68,12.28Z"/><path d="M8.81,12.28a.78.78,0,1,0,0,1.56.78.78,0,1,0,0-1.56Z"/><path d="M12,12.28a.78.78,0,1,0,.78.78A.78.78,0,0,0,12,12.28Z"/><path d="M15.08,12.28a.78.78,0,1,0,.78.78A.77.77,0,0,0,15.08,12.28Z"/><path d="M18.21,12.28a.78.78,0,1,0,.78.78A.78.78,0,0,0,18.21,12.28Z"/><path d="M21.34,13.84a.78.78,0,1,0-.78-.78A.78.78,0,0,0,21.34,13.84Z"/><path d="M7.25,10.72a.78.78,0,1,0-.79-.78A.77.77,0,0,0,7.25,10.72Z"/><path d="M10.38,10.72a.78.78,0,1,0-.78-.78A.77.77,0,0,0,10.38,10.72Z"/><path d="M13.51,10.72a.78.78,0,1,0-.78-.78A.77.77,0,0,0,13.51,10.72Z"/><path d="M16.64,10.72a.78.78,0,1,0-.78-.78A.77.77,0,0,0,16.64,10.72Z"/><path d="M19.77,9.17a.78.78,0,1,0,.79.77A.78.78,0,0,0,19.77,9.17Z"/><path d="M22.9,9.17a.78.78,0,1,0,0,1.55.78.78,0,1,0,0-1.55Z"/><path d="M24.47,13.84a.78.78,0,1,0-.78-.78A.77.77,0,0,0,24.47,13.84Z"/><path d="M26,10.72a.78.78,0,1,0,0-1.55.78.78,0,1,0,0,1.55Z"/><path d="M8.81,7.61a.78.78,0,1,0,0-1.56.78.78,0,1,0,0,1.56Z"/><path d="M12,7.61a.78.78,0,1,0-.79-.78A.78.78,0,0,0,12,7.61Z"/><path d="M15.08,7.61a.78.78,0,1,0-.78-.78A.78.78,0,0,0,15.08,7.61Z"/><path d="M18.21,7.61a.78.78,0,1,0-.78-.78A.78.78,0,0,0,18.21,7.61Z"/><path d="M21.34,7.61a.78.78,0,1,0-.78-.78A.78.78,0,0,0,21.34,7.61Z"/><path d="M16.64,4.5a.78.78,0,1,0,0-1.56.78.78,0,0,0,0,1.56Z"/><path d="M19.77,4.5A.78.78,0,1,0,19,3.72.78.78,0,0,0,19.77,4.5Z"/><path d="M22.9,4.5a.78.78,0,1,0-.78-.78A.78.78,0,0,0,22.9,4.5Z"/><path d="M24.47,7.61a.78.78,0,1,0-.78-.78A.77.77,0,0,0,24.47,7.61Z"/><path d="M27.6,13.84a.78.78,0,1,0,0-1.56.78.78,0,0,0,0,1.56Z"/><path d="M29.17,10.72a.78.78,0,1,0-.78-.78A.77.77,0,0,0,29.17,10.72Z"/><path d="M30.73,13.84a.78.78,0,1,0,0-1.56.78.78,0,0,0,0,1.56Z"/><path d="M33.87,13.84a.78.78,0,1,0-.79-.78A.78.78,0,0,0,33.87,13.84Z"/><path d="M32.3,10.72a.78.78,0,1,0-.78-.78A.77.77,0,0,0,32.3,10.72Z"/><path d="M27.6,7.61a.78.78,0,1,0,0-1.56.78.78,0,0,0,0,1.56Z"/><path d="M30.73,7.61a.78.78,0,1,0,0-1.56.78.78,0,0,0,0,1.56Z"/><path d="M39,32.5c.18-1.83.4-3.68.61-5.52h-.05c.25-2.87.41-5.7.41-7.72C40,7.2,32.48,0,20,0,7.28,0,0,6.65,0,18.25A52.34,52.34,0,0,0,.91,27h0c.75,6.5,1.53,13.22.84,18.07a4.07,4.07,0,0,0,1,3.24A4.16,4.16,0,0,0,5.8,49.72h4.94c2.81,2.53,6.07,4.17,9.41,4.17s6.62-1.64,9.56-4.17h4.95a4.13,4.13,0,0,0,3.13-1.43,4,4,0,0,0,1-3.24,51.73,51.73,0,0,1,.11-11.29C38.92,33.33,39,32.92,39,32.5ZM9.85,4.29a.77.77,0,0,0,.53.21.78.78,0,0,0,.78-.78h0a18.26,18.26,0,0,1,1.9-.61.75.75,0,0,0-.33.62.78.78,0,0,0,.78.78.79.79,0,0,0,.79-.78A.78.78,0,0,0,13.59,3,27.3,27.3,0,0,1,20,2.26,23.86,23.86,0,0,1,25.9,3a.78.78,0,0,0-.65.75A.79.79,0,0,0,26,4.5a.78.78,0,0,0,.78-.78.76.76,0,0,0-.23-.54,14.73,14.73,0,0,1,8.46,6.1.77.77,0,0,0,.38,1.44.74.74,0,0,0,.39-.11,16.37,16.37,0,0,1,.76,1.81.75.75,0,0,0-.37.64.79.79,0,0,0,.79.78h0a20.88,20.88,0,0,1,.65,5.08A.77.77,0,0,0,37,18.5a.78.78,0,1,0,0,1.56.76.76,0,0,0,.68-.42c0,1.46-.1,3.3-.24,5.24a.78.78,0,0,0-.44-.15.79.79,0,0,0-.79.78.78.78,0,0,0,.79.77.81.81,0,0,0,.34-.08c0,.17,0,.34-.05.51h0l-.24,2a43.75,43.75,0,0,0-2.2-5,2.24,2.24,0,0,0-1.79-1.2.7.7,0,0,0,0-.14.78.78,0,0,0-1.56,0,.86.86,0,0,0,0,.17c-.56,0-1.11.05-1.64.05a.78.78,0,1,0-1.52-.22,1.08,1.08,0,0,0,0,.19c-.55,0-1.09-.08-1.61-.14,0,0,0,0,0-.05a.78.78,0,0,0-1.53-.19,22.74,22.74,0,0,1-6.62-2.3.77.77,0,0,0-.46-1.4.77.77,0,0,0-.76.68,15.05,15.05,0,0,1-2.29-1.73l-.93-1a.77.77,0,0,0-.72-1.09.67.67,0,0,0-.28.06l-.07-.07v.1a.77.77,0,0,0,0,1.38v5.36a10.24,10.24,0,0,1-3.81-2.37.78.78,0,0,0-.54-1.35.78.78,0,0,0-.58.27c-.41-.43-.79-.85-1.1-1.24l-1-1.21-.89,1.27A17.82,17.82,0,0,0,2.72,24c-.19-1.4-.33-2.71-.4-3.94a.59.59,0,0,0,.23,0,.78.78,0,0,0,0-1.56.88.88,0,0,0-.28.06c0-.1,0-.21,0-.31a21.5,21.5,0,0,1,.43-4.44.77.77,0,0,0,.64-.75A.74.74,0,0,0,3,12.47a15.77,15.77,0,0,1,.68-1.87.77.77,0,1,0,.71-1.36A12.4,12.4,0,0,1,5.58,7.59l.1,0a.78.78,0,0,0,.78-.78.8.8,0,0,0,0-.15A13.86,13.86,0,0,1,9.85,4.29ZM4.43,46.76A1.71,1.71,0,0,1,4,45.38a33.27,33.27,0,0,0,.29-4.71,27.68,27.68,0,0,0,4.2,6.72H5.8A1.79,1.79,0,0,1,4.43,46.76Zm15.72,4.77c-7.85,0-15.53-11.22-15.53-19.59V27.23a18.82,18.82,0,0,1,1.78-7c1.7,1.8,5,4.79,8.09,4.36l1-.15V20.71a25.46,25.46,0,0,0,17.28,4.08c1.83,3.56,3.55,8.13,3.28,10.89C33.94,43.29,26.77,51.53,20.15,51.53ZM36,46.76a1.79,1.79,0,0,1-1.37.63H32.09a29.2,29.2,0,0,0,4.08-5.81,32,32,0,0,0,.28,3.8A1.71,1.71,0,0,1,36,46.76Z"/><path d="M21.65,41.38a2.18,2.18,0,0,1-3,.1,1,1,0,1,0-1.32,1.46A4.14,4.14,0,0,0,20.09,44a4.09,4.09,0,0,0,3-1.28,1,1,0,0,0-1.42-1.36Z"/><path d="M13.48,27.15a1.58,1.58,0,1,0,1.57,1.58A1.57,1.57,0,0,0,13.48,27.15Z"/><path d="M26.83,27.15a1.58,1.58,0,1,0,1.57,1.58A1.58,1.58,0,0,0,26.83,27.15Z"/><path d="M5.68,44.56a.78.78,0,1,0,.78.78A.78.78,0,0,0,5.68,44.56Z"/><path d="M35.14,44.56a.78.78,0,1,0,0,1.56.78.78,0,1,0,0-1.56Z"/></g></g></svg>