<svg xmlns="http://www.w3.org/2000/svg" viewBox="0 0 55.34 65.44"><title>Middel 5</title><g id="Laag_2" data-name="Laag 2"><g id="Layer_1" data-name="Layer 1"><path d="M55.29,4.68a1.07,1.07,0,0,0-1.06-.77l-.92,0c-2.83,0-3.59-.48-5.4-3.42A1.09,1.09,0,0,0,46.69,0a1.07,1.07,0,0,0-.76,1.06c.12,3.75-.12,4.21-3.23,6.11a1.1,1.1,0,0,0-.47,1.22,1.08,1.08,0,0,0,1,.77H44a8,8,0,0,1,2.07.2,5.52,5.52,0,0,1-1.92,2.39,5.47,5.47,0,0,1-4.5.41c-6.23-1.66-8.78,1.59-9.64,3.19L24.27,13.9a1.08,1.08,0,0,0-1.29.71l-1.62,5a22.93,22.93,0,1,0,14.76,4.1l1.49-5.25a1.07,1.07,0,0,0-.76-1.33l-4.68-1.21c.76-1.15,2.64-2.82,7-1.67a7.43,7.43,0,0,0,6.21-.69,7.47,7.47,0,0,0,2.57-3,17.27,17.27,0,0,1,1.53,2.23,1.08,1.08,0,0,0,.91.51h0a1.07,1.07,0,0,0,1.07-1.07,1.64,1.64,0,0,0,0-.23c-.1-3.51.32-4.23,3.41-6.12A1.08,1.08,0,0,0,55.29,4.68ZM43,47.86A20.82,20.82,0,0,1,30.73,61.77a.77.77,0,0,0-.1-.67.78.78,0,0,0-1.27.91.8.8,0,0,0,.21.2c-.56.19-1.13.35-1.71.49a.79.79,0,0,0-.85,0,.55.55,0,0,0-.16.18A20.86,20.86,0,0,1,23,63.3l-.39,0a.85.85,0,0,0-.08-.17.79.79,0,0,0-1.08-.18,1,1,0,0,0-.23.28A20.66,20.66,0,0,1,7.12,56a.75.75,0,0,0,0-.93.76.76,0,0,0-1-.23A19.93,19.93,0,0,1,5,52.92a21.14,21.14,0,0,1-2.13-5.24l0,0A.77.77,0,0,0,3,46.58a.72.72,0,0,0-.52-.31c-.12-.66-.21-1.33-.27-2l.08,0a.77.77,0,0,0,.18-1.08.67.67,0,0,0-.34-.26,21.32,21.32,0,0,1,.69-5.76c.13-.49.29-1,.45-1.43a.73.73,0,0,0,.49-.13A.78.78,0,0,0,4,34.5a.66.66,0,0,0-.15-.14,20.69,20.69,0,0,1,3.68-5.78.78.78,0,0,0,.82,0,.77.77,0,0,0,.21-1A20.78,20.78,0,0,1,43,47.86ZM49.43,9.07a5.3,5.3,0,0,0-3.11-1.83,4.92,4.92,0,0,0,1.63-3,5.45,5.45,0,0,0,3.22,1.72A5.34,5.34,0,0,0,49.43,9.07Z"/><path d="M23.94,61.12a.79.79,0,0,0-.18,1.09.8.8,0,0,0,1.09.18.78.78,0,0,0-.91-1.27Z"/><path d="M26.48,59.32a.77.77,0,0,0-.18,1.08.78.78,0,0,0,1.27-.91A.77.77,0,0,0,26.48,59.32Z"/><path d="M15.28,59.71a.77.77,0,1,0,1.08.17A.78.78,0,0,0,15.28,59.71Z"/><path d="M18.71,59.16a.77.77,0,1,0-.9-1.26.77.77,0,0,0,.9,1.26Z"/><path d="M21.25,57.35a.77.77,0,1,0-1.09-.18A.78.78,0,0,0,21.25,57.35Z"/><path d="M23.78,55.54a.77.77,0,1,0-.9-1.26.77.77,0,0,0,.9,1.26Z"/><path d="M18.35,61.32a.77.77,0,0,0-.19,1.08.78.78,0,0,0,1.27-.9A.77.77,0,0,0,18.35,61.32Z"/><path d="M20.88,59.51a.77.77,0,1,0,.9,1.26.77.77,0,0,0-.9-1.26Z"/><path d="M24.31,59a.77.77,0,0,0,.19-1.08.78.78,0,0,0-1.09-.18.77.77,0,0,0,.9,1.26Z"/><path d="M26.85,57.15A.77.77,0,1,0,25.77,57,.77.77,0,0,0,26.85,57.15Z"/><path d="M9.14,56.48A.78.78,0,0,0,9,57.56a.77.77,0,0,0,1.08.18.77.77,0,1,0-.9-1.26Z"/><path d="M12.58,55.93a.77.77,0,1,0-.9-1.26.77.77,0,0,0,.9,1.26Z"/><path d="M15.12,54.12A.78.78,0,0,0,15.3,53a.78.78,0,0,0-1.27.9A.78.78,0,0,0,15.12,54.12Z"/><path d="M17.65,52.31a.77.77,0,1,0-1.08-.18A.77.77,0,0,0,17.65,52.31Z"/><path d="M19.29,49.24a.77.77,0,1,0,1.08.17A.77.77,0,0,0,19.29,49.24Z"/><path d="M12.21,58.09a.77.77,0,1,0,.9,1.26.77.77,0,1,0-.9-1.26Z"/><path d="M15.65,57.54a.77.77,0,1,0-.9-1.26.77.77,0,1,0,.9,1.26Z"/><path d="M18.18,55.73a.77.77,0,1,0-.9-1.26.77.77,0,0,0,.9,1.26Z"/><path d="M20.72,53.92a.77.77,0,1,0-.9-1.26.77.77,0,1,0,.9,1.26Z"/><path d="M23.25,52.11A.77.77,0,0,0,23.44,51a.78.78,0,1,0-.19,1.08Z"/><path d="M5.55,51.44a.77.77,0,1,0,.9,1.26.77.77,0,1,0-.9-1.26Z"/><path d="M9,50.89a.77.77,0,1,0-.9-1.26A.77.77,0,0,0,9,50.89Z"/><path d="M11.52,49.08a.77.77,0,1,0-.9-1.26.77.77,0,1,0,.9,1.26Z"/><path d="M13.15,46a.77.77,0,0,0,.9,1.26.77.77,0,1,0-.9-1.26Z"/><path d="M15.69,44.2a.77.77,0,1,0,1.08.18A.77.77,0,0,0,15.69,44.2Z"/><path d="M29,57.51a.77.77,0,0,0-.19,1.08.79.79,0,0,0,1.08.18.78.78,0,0,0,.19-1.09A.76.76,0,0,0,29,57.51Z"/><path d="M26.32,53.73a.77.77,0,1,0-1.09-.18A.78.78,0,0,0,26.32,53.73Z"/><path d="M21.82,47.43a.77.77,0,1,0,1.08.18A.77.77,0,0,0,21.82,47.43Z"/><path d="M18.22,42.39a.77.77,0,1,0,1.09.18A.78.78,0,0,0,18.22,42.39Z"/><path d="M9.51,54.31a.78.78,0,0,0,.19-1.08.78.78,0,1,0-.19,1.08Z"/><path d="M12.05,52.5a.77.77,0,1,0-.9-1.26.77.77,0,1,0,.9,1.26Z"/><path d="M14.58,50.69a.77.77,0,1,0-.89-1.26.77.77,0,1,0,.89,1.26Z"/><path d="M16.22,47.62A.78.78,0,0,0,16,48.71a.78.78,0,1,0,.18-1.09Z"/><path d="M18.76,45.81a.77.77,0,1,0,.9,1.26.77.77,0,1,0-.9-1.26Z"/><path d="M5.92,49.28A.78.78,0,0,0,5,48a.78.78,0,1,0,.9,1.27Z"/><path d="M8.45,47.46a.78.78,0,0,0,.19-1.08.8.8,0,0,0-1.09-.18.78.78,0,0,0-.18,1.09A.77.77,0,0,0,8.45,47.46Z"/><path d="M11,45.65a.77.77,0,0,0,.18-1.08A.78.78,0,1,0,11,45.65Z"/><path d="M12.62,42.59a.77.77,0,0,0-.18,1.08.78.78,0,0,0,1.27-.91A.77.77,0,0,0,12.62,42.59Z"/><path d="M15.16,40.78a.77.77,0,1,0,1.08.17A.77.77,0,0,0,15.16,40.78Z"/><path d="M28.3,55.16a.78.78,0,1,0,.19-1.08A.77.77,0,0,0,28.3,55.16Z"/><path d="M33,60.38a.77.77,0,1,0-.9-1.26.77.77,0,0,0,.9,1.26Z"/><path d="M25.79,50.3a.77.77,0,1,0-.9-1.26.77.77,0,1,0,.9,1.26Z"/><path d="M22.19,45.26a.77.77,0,1,0-.9-1.26.77.77,0,1,0,.9,1.26Z"/><path d="M18.59,40.22a.77.77,0,0,0,.19-1.08A.79.79,0,0,0,17.69,39a.77.77,0,1,0,.9,1.25Z"/><path d="M5.39,45.85a.77.77,0,1,0-1.09-.18A.78.78,0,0,0,5.39,45.85Z"/><path d="M7.92,44a.77.77,0,1,0-1.08-.18A.77.77,0,0,0,7.92,44Z"/><path d="M10.64,41.15a.78.78,0,1,0-.19,1.08A.77.77,0,0,0,10.64,41.15Z"/><path d="M12.09,39.16a.77.77,0,1,0,.9,1.26.77.77,0,1,0-.9-1.26Z"/><path d="M4.86,42.43A.78.78,0,0,0,5,41.35a.78.78,0,0,0-1.27.9A.78.78,0,0,0,4.86,42.43Z"/><path d="M6.49,39.36a.77.77,0,0,0,.9,1.26.77.77,0,1,0-.9-1.26Z"/><path d="M9,37.55a.77.77,0,0,0-.19,1.08.78.78,0,0,0,1.09.18.79.79,0,0,0,.18-1.09A.78.78,0,0,0,9,37.55Z"/><path d="M11.56,35.74a.77.77,0,0,0-.18,1.08.78.78,0,1,0,.18-1.08Z"/><path d="M4.32,39a.77.77,0,0,0,.19-1.08.78.78,0,0,0-1.09-.18A.77.77,0,0,0,4.32,39Z"/><path d="M6,35.93a.77.77,0,1,0,.9,1.26A.77.77,0,1,0,6,35.93Z"/><path d="M8.49,34.12a.77.77,0,1,0,.9,1.26.77.77,0,0,0,.19-1.08A.78.78,0,0,0,8.49,34.12Z"/><path d="M6.33,33.77a.77.77,0,1,0-.9-1.26.77.77,0,1,0,.9,1.26Z"/><path d="M8.86,32a.77.77,0,1,0-1.08-.18A.77.77,0,0,0,8.86,32Z"/><path d="M14.63,37.35a.77.77,0,1,0,.9,1.26.77.77,0,0,0-.9-1.26Z"/><path d="M11,32.31a.77.77,0,1,0,1.08.18A.77.77,0,0,0,11,32.31Z"/><path d="M15,35.19a.79.79,0,0,0,.18-1.09.78.78,0,0,0-1.27.91A.78.78,0,0,0,15,35.19Z"/><path d="M11.4,30.15a.77.77,0,0,0-.9-1.26.77.77,0,1,0,.9,1.26Z"/><path d="M39.45,42.29A15.18,15.18,0,0,1,34.8,53.82a.71.71,0,0,0-.1,1,.71.71,0,0,0,.56.27.68.68,0,0,0,.44-.16,16.35,16.35,0,0,0,5.18-12.66c-.12-8.22-6-13.53-6.26-13.75a.72.72,0,0,0-1,.06.71.71,0,0,0,.07,1C33.73,29.64,39.34,34.69,39.45,42.29Z"/></g></g></svg>