<svg xmlns="http://www.w3.org/2000/svg" viewBox="0 0 55.45 55.45"><title>Middel 13</title><g id="Laag_2" data-name="Laag 2"><g id="Layer_1" data-name="Layer 1"><path d="M13,44.94a.7.7,0,1,0,1,0A.69.69,0,0,0,13,44.94Z"/><path d="M14.94,42.94a.72.72,0,0,0,0,1,.71.71,0,0,0,1-1A.72.72,0,0,0,14.94,42.94Z"/><path d="M16.94,40.94a.71.71,0,0,0,1,1,.71.71,0,0,0-1-1Z"/><path d="M18.93,39a.71.71,0,0,0,1,1,.71.71,0,0,0-1-1Z"/><path d="M20.93,38a.71.71,0,0,0,1-1,.72.72,0,0,0-1,0A.71.71,0,0,0,20.93,38Z"/><path d="M22.93,36a.7.7,0,0,0,1,0,.71.71,0,0,0-1-1A.7.7,0,0,0,22.93,36Z"/><path d="M10,43.94a.7.7,0,0,0,0,1,.71.71,0,0,0,1-1A.7.7,0,0,0,10,43.94Z"/><path d="M13,41.94a.72.72,0,0,0-1,0,.71.71,0,0,0,1,1A.72.72,0,0,0,13,41.94Z"/><path d="M14.94,40a.7.7,0,1,0,0,1A.69.69,0,0,0,14.94,40Z"/><path d="M16.94,38a.71.71,0,0,0-1,1,.71.71,0,1,0,1-1Z"/><path d="M18.93,36a.7.7,0,0,0-1,1,.69.69,0,0,0,1,0A.7.7,0,0,0,18.93,36Z"/><path d="M19.93,34a.7.7,0,0,0,1,1,.69.69,0,0,0,0-1A.7.7,0,0,0,19.93,34Z"/><path d="M22.93,33a.72.72,0,0,0,0-1,.71.71,0,0,0-1,1A.72.72,0,0,0,22.93,33Z"/><path d="M35.91,24a.7.7,0,0,0-1-1,.69.69,0,0,0,0,1A.7.7,0,0,0,35.91,24Z"/><path d="M36.9,22a.72.72,0,0,0,1,0,.71.71,0,0,0-1-1A.72.72,0,0,0,36.9,22Z"/><path d="M38.9,20a.7.7,0,0,0,1,0,.71.71,0,0,0-1-1A.7.7,0,0,0,38.9,20Z"/><path d="M40.9,18a.7.7,0,1,0,0-1A.69.69,0,0,0,40.9,18Z"/><path d="M31.91,22a.71.71,0,1,0,1,1,.71.71,0,0,0-1-1Z"/><path d="M34.91,20a.71.71,0,0,0-1,0,.7.7,0,0,0,0,1,.71.71,0,0,0,1-1Z"/><path d="M36.9,19a.7.7,0,1,0-1,0A.69.69,0,0,0,36.9,19Z"/><path d="M38.9,17a.71.71,0,1,0-1-1,.71.71,0,0,0,1,1Z"/><path d="M40.9,15a.71.71,0,0,0-1-1,.71.71,0,0,0,1,1Z"/><path d="M42.89,16a.72.72,0,0,0,1,0,.71.71,0,0,0-1-1A.72.72,0,0,0,42.89,16Z"/><path d="M45.89,14a.71.71,0,0,0-1-1,.71.71,0,0,0,1,1Z"/><path d="M42.89,13a.69.69,0,0,0,0-1,.7.7,0,1,0,0,1Z"/><path d="M52.36,52.43a11,11,0,0,0,3-5,1.16,1.16,0,0,0-.3-1.16L36.53,27.71l14.83-14.8s0,0,0-.05a1.17,1.17,0,0,0,.19-.3.43.43,0,0,1,0-.07C55.81,1.07,55.77,1,55.09.35A1.25,1.25,0,0,0,54.23,0C54,0,53.38,0,43,3.82a1.48,1.48,0,0,0-.13.08,2.26,2.26,0,0,0-.26.16s0,0,0,0L27.74,18.91,12.91,4.09s0,0-.05,0a.82.82,0,0,0-.25-.16,1,1,0,0,0-.13-.09C2.07,0,1.44,0,1.21,0A1.24,1.24,0,0,0,.35.36c-.68.67-.72.71,3.46,12.12,0,0,0,0,0,.08a1.12,1.12,0,0,0,.19.29l0,.06L18.91,27.74.35,46.29a1.16,1.16,0,0,0-.3,1.16,10.73,10.73,0,0,0,3,4.91,11,11,0,0,0,5,3,1.24,1.24,0,0,0,.33,0,1.21,1.21,0,0,0,.84-.34L27.74,36.56,46.28,55.1a1.16,1.16,0,0,0,.83.35,1.26,1.26,0,0,0,.33-.05A11,11,0,0,0,52.36,52.43ZM50.13,3.74a.24.24,0,0,0,.06.08l.17.23a3.56,3.56,0,0,0,.44.49,3.11,3.11,0,0,0,.69.54,1.14,1.14,0,0,1,.23.15h0c-.59,1.67-1.28,3.61-1.9,5.33a8.8,8.8,0,0,1-2.84-2l-.15-.15a8.51,8.51,0,0,1-2-2.76C46.57,5,48.47,4.33,50.13,3.74ZM43,7a10.4,10.4,0,0,0,2.3,3.12,11.05,11.05,0,0,0,3.2,2.37L34.87,26.05,29.4,20.58ZM12.5,7,48.29,42.79a8.42,8.42,0,0,1-.78,1.56L11.62,8.46A12,12,0,0,0,12.5,7ZM46.64,45.48c-.17.18-.33.36-.52.54l-.17.17a6.25,6.25,0,0,1-.65.61L9.4,10.9a9.61,9.61,0,0,0,.73-.7c.21-.2.41-.41.61-.63ZM3.73,5.31l.09,0L4,5.08a2.56,2.56,0,0,0,.5-.43A3.27,3.27,0,0,0,5.07,4a1.82,1.82,0,0,1,.15-.23h0C6.91,4.3,8.84,5,10.57,5.62a9.07,9.07,0,0,1-2,2.84l-.15.15a8.7,8.7,0,0,1-2.77,2C5,8.87,4.32,7,3.73,5.31ZM8,52.93A8.67,8.67,0,0,1,4.68,50.7a8.58,8.58,0,0,1-2.16-3.26l2.85-2.85a10.73,10.73,0,0,0,2.31,3.12,11.15,11.15,0,0,0,3.19,2.37Zm4.63-4.64a8.8,8.8,0,0,1-3.24-2.18L9.27,46A8.45,8.45,0,0,1,7.16,42.8L20.58,29.4l5.49,5.49Zm30.15,0L7,12.5a12.22,12.22,0,0,0,1.26-.74L44.15,47.64A8.81,8.81,0,0,1,42.8,48.29Zm4.9-.52a11.15,11.15,0,0,0,2.37-3.19l2.86,2.85a8.79,8.79,0,0,1-2.24,3.34,8.55,8.55,0,0,1-3.26,2.16l-2.85-2.86A10.52,10.52,0,0,0,47.7,47.77Z"/></g></g></svg>