<svg xmlns="http://www.w3.org/2000/svg" viewBox="0 0 51.58 51.62"><title>Middel 3</title><g id="Laag_2" data-name="Laag 2"><g id="Layer_1" data-name="Layer 1"><path d="M9.13,45.51a25.45,25.45,0,0,0,2.29,1.73,25.79,25.79,0,0,0,31-41.13,27.48,27.48,0,0,0-2.29-1.73,25.8,25.8,0,0,0-31,41.13Zm-1.41-35A23.62,23.62,0,0,1,39,6.16a24.63,24.63,0,0,1,2.1,1.59c.49.42,1,.85,1.41,1.3a.71.71,0,0,0,.43.86.72.72,0,0,0,.41,0,23.44,23.44,0,0,1,2.34,3,.82.82,0,0,0-.15.24.71.71,0,0,0,.42.92.74.74,0,0,0,.44,0,23.61,23.61,0,0,1,2.5,6.45.7.7,0,0,0,.15.73c.14.74.25,1.48.32,2.23a.55.55,0,0,0-.14.22.71.71,0,0,0,.21.79A23.49,23.49,0,0,1,48.62,32a.62.62,0,0,0-.21-.13.71.71,0,1,0-.5,1.33.67.67,0,0,0,.34,0,23.26,23.26,0,0,1-1.77,4l-.09-.06a.71.71,0,0,0-.63,1.27,24,24,0,0,1-1.41,2,.59.59,0,0,0,.1-.17.72.72,0,0,0-1.34-.51.71.71,0,0,0,.42.92.69.69,0,0,0,.74-.15l-.42.53a23.77,23.77,0,0,1-6.44,5.33.72.72,0,0,0-.45-.55A.71.71,0,0,0,36.21,47a23.61,23.61,0,0,1-6.67,2.13.69.69,0,0,0-.65.11c-.65.08-1.3.15-1.95.18a.73.73,0,0,0,.35-.38.71.71,0,0,0-.41-.92.72.72,0,0,0-.93.41.71.71,0,0,0,.37.9,23.48,23.48,0,0,1-13.7-4,23.18,23.18,0,0,1-2.11-1.58A23.69,23.69,0,0,1,7.72,10.54Z"/><path d="M46.24,17.29A.72.72,0,1,0,46.75,16a.71.71,0,0,0-.92.42A.7.7,0,0,0,46.24,17.29Z"/><path d="M43.55,16.27a.71.71,0,1,0,.51-1.33.71.71,0,1,0-.51,1.33Z"/><path d="M40.86,15.25a.71.71,0,1,0,.51-1.33.71.71,0,1,0-.51,1.33Z"/><path d="M46.91,23.65a.71.71,0,1,0,.5-1.33.71.71,0,1,0-.5,1.33Z"/><path d="M43.8,21.71a.72.72,0,1,0,.93-.41A.71.71,0,0,0,43.8,21.71Z"/><path d="M41.11,20.69a.72.72,0,1,0,1.35.51.71.71,0,0,0-.42-.92A.73.73,0,0,0,41.11,20.69Z"/><path d="M39.77,20.19a.72.72,0,0,0-1.35-.51.72.72,0,0,0,.42.92A.73.73,0,0,0,39.77,20.19Z"/><path d="M46.58,20.47a.71.71,0,0,0,.92-.41.73.73,0,0,0-.42-.93.72.72,0,1,0-.5,1.34Z"/><path d="M43.89,19.45a.71.71,0,1,0-.42-.92A.71.71,0,0,0,43.89,19.45Z"/><path d="M40.78,17.51a.72.72,0,0,0,1.35.51.73.73,0,0,0-.43-.92A.71.71,0,0,0,40.78,17.51Z"/><path d="M38.09,16.49a.73.73,0,0,0,.42.93.72.72,0,1,0-.42-.93Z"/><path d="M43.22,13.09a.72.72,0,0,0,.93-.41.73.73,0,0,0-.42-.93.72.72,0,0,0-.93.42A.71.71,0,0,0,43.22,13.09Z"/><path d="M40.53,12.07a.72.72,0,0,0,.93-.41.72.72,0,1,0-1.35-.51A.71.71,0,0,0,40.53,12.07Z"/><path d="M47.58,30a.71.71,0,1,0-.42-.92A.71.71,0,0,0,47.58,30Z"/><path d="M44.46,28.07a.74.74,0,0,0,.42.93.72.72,0,1,0-.42-.93Z"/><path d="M42.7,26.64A.72.72,0,1,0,42.2,28a.71.71,0,0,0,.92-.42A.72.72,0,0,0,42.7,26.64Z"/><path d="M39.09,26a.72.72,0,0,0,1.34.51.73.73,0,0,0-.42-.93A.71.71,0,0,0,39.09,26Z"/><path d="M47.24,26.83a.71.71,0,1,0-.42-.92A.72.72,0,0,0,47.24,26.83Z"/><path d="M44.13,24.89a.72.72,0,1,0,.93-.41A.71.71,0,0,0,44.13,24.89Z"/><path d="M42.37,23.46a.72.72,0,0,0-.51,1.34.72.72,0,0,0,.93-.42A.71.71,0,0,0,42.37,23.46Z"/><path d="M39.68,22.44a.72.72,0,1,0,.42.93A.73.73,0,0,0,39.68,22.44Z"/><path d="M37,21.42a.72.72,0,1,0,.42.93A.73.73,0,0,0,37,21.42Z"/><path d="M45.13,34.44a.72.72,0,1,0,.93-.42A.72.72,0,0,0,45.13,34.44Z"/><path d="M42.86,34.34a.72.72,0,0,0,.93-.41.72.72,0,1,0-1.35-.51A.71.71,0,0,0,42.86,34.34Z"/><path d="M39.75,32.4a.72.72,0,1,0,.93-.41A.71.71,0,0,0,39.75,32.4Z"/><path d="M38.41,31.89a.72.72,0,1,0-.93.41A.71.71,0,0,0,38.41,31.89Z"/><path d="M35.3,30a.72.72,0,0,0-.93.41A.72.72,0,1,0,35.3,30Z"/><path d="M44.8,31.26a.72.72,0,1,0,.92-.42A.71.71,0,0,0,44.8,31.26Z"/><path d="M43,29.82a.72.72,0,1,0,.42.93A.71.71,0,0,0,43,29.82Z"/><path d="M39.42,29.22a.72.72,0,1,0,.93-.41A.71.71,0,0,0,39.42,29.22Z"/><path d="M43.2,37.52a.71.71,0,1,0,.5-1.33.71.71,0,1,0-.5,1.33Z"/><path d="M40.09,35.58a.72.72,0,1,0,.92-.41A.71.71,0,0,0,40.09,35.58Z"/><path d="M38.74,35.07a.72.72,0,0,0-1.34-.51.73.73,0,0,0,.42.93A.71.71,0,0,0,38.74,35.07Z"/><path d="M34.71,33.55a.72.72,0,0,0,1.34.5.72.72,0,0,0-1.34-.5Z"/><path d="M41.76,39.27a.72.72,0,0,0-1.34-.51.71.71,0,0,0,.42.92A.7.7,0,0,0,41.76,39.27Z"/><path d="M39.07,38.25a.71.71,0,0,0-.41-.92.72.72,0,1,0-.51,1.34A.71.71,0,0,0,39.07,38.25Z"/><path d="M36.39,37.23a.72.72,0,0,0-.42-.92.73.73,0,0,0-.93.42.72.72,0,0,0,1.35.5Z"/><path d="M40.75,41.94a.72.72,0,1,0,1.35.51.72.72,0,0,0-1.35-.51Z"/><path d="M39,40.51a.73.73,0,0,0-.93.41.72.72,0,1,0,1.35.51A.71.71,0,0,0,39,40.51Z"/><path d="M35.79,40.83a.72.72,0,0,0,.93-.41.72.72,0,0,0-1.35-.51A.71.71,0,0,0,35.79,40.83Z"/><path d="M32.68,38.89A.72.72,0,0,0,34,39.4a.72.72,0,1,0-1.35-.51Z"/><path d="M30.92,37.46a.71.71,0,1,0-.5,1.33.71.71,0,1,0,.5-1.33Z"/><path d="M31.92,47a.73.73,0,0,0-.93.42.71.71,0,0,0,.42.92.73.73,0,0,0,.93-.42A.71.71,0,0,0,31.92,47Z"/><path d="M29.23,46a.73.73,0,0,0-.93.42.72.72,0,0,0,1.35.5A.72.72,0,0,0,29.23,46Z"/><path d="M39.32,43.69a.72.72,0,1,0,.42.93A.73.73,0,0,0,39.32,43.69Z"/><path d="M36.63,42.68a.71.71,0,1,0-.5,1.33.71.71,0,1,0,.5-1.33Z"/><path d="M34.36,42.58a.72.72,0,1,0-.92.41A.71.71,0,0,0,34.36,42.58Z"/><path d="M30.33,41.05a.72.72,0,1,0,1.34.51.72.72,0,0,0-1.34-.51Z"/><path d="M34.28,44.84a.71.71,0,1,0-.51,1.33.7.7,0,0,0,.92-.41A.71.71,0,0,0,34.28,44.84Z"/><path d="M31.58,43.82a.71.71,0,0,0-.92.41.72.72,0,0,0,1.35.51A.71.71,0,0,0,31.58,43.82Z"/><path d="M36.4,25a.72.72,0,0,0,1.34.51.73.73,0,0,0-.42-.93A.71.71,0,0,0,36.4,25Z"/><path d="M36.73,28.2a.72.72,0,0,0,1.34.51.72.72,0,0,0-1.34-.51Z"/><path d="M32,32.53a.72.72,0,1,0,.93-.41A.71.71,0,0,0,32,32.53Z"/><path d="M32.35,35.71a.72.72,0,1,0,.93-.41A.71.71,0,0,0,32.35,35.71Z"/><path d="M28,43.22a.72.72,0,0,0,.42.92.73.73,0,0,0,.93-.42.71.71,0,0,0-.42-.92A.73.73,0,0,0,28,43.22Z"/><path d="M34.05,27.18a.7.7,0,0,0,.41.92A.71.71,0,1,0,35,26.77.71.71,0,0,0,34.05,27.18Z"/><rect x="20.06" y="25.34" width="11.46" height="24.77"/><path d="M9.58,27.83l16-19.06a.5.5,0,0,1,.76,0l16,19.06a.5.5,0,0,1-.39.82H10A.5.5,0,0,1,9.58,27.83Z"/></g></g></svg>