<?xml version="1.0" encoding="utf-8"?>
<!-- Generator: Adobe Illustrator 23.0.6, SVG Export Plug-In . SVG Version: 6.00 Build 0)  -->
<svg version="1.1" id="Laag_1" xmlns="http://www.w3.org/2000/svg" xmlns:xlink="http://www.w3.org/1999/xlink" x="0px" y="0px"
	 viewBox="0 0 512 512" style="enable-background:new 0 0 512 512;" xml:space="preserve">
<path d="M256,483.5c-7.3,0-14.3-2.6-19.8-7.4C215.5,458,195.6,441,178,426l-0.1-0.1C126.3,382,81.8,344,50.8,306.6
	C16.1,264.8,0,225.2,0,181.9C0,139.8,14.4,101,40.6,72.6C67.1,43.8,103.5,28,143,28c29.6,0,56.6,9.3,80.4,27.8
	c12,9.3,22.9,20.7,32.5,34c9.6-13.3,20.5-24.7,32.5-34C312.4,37.3,339.4,28,369,28c39.5,0,75.9,15.8,102.4,44.6
	C497.6,101,512,139.8,512,181.9c0,43.3-16.1,82.9-50.8,124.7c-31,37.4-75.5,75.4-127.1,119.3c-17.6,15-37.6,32-58.3,50.2
	C270.3,480.9,263.3,483.5,256,483.5z M143,58C112,58,83.4,70.4,62.7,92.9c-21.1,22.9-32.7,54.4-32.7,89c0,36.4,13.5,69,43.9,105.6
	c29.3,35.4,73,72.6,123.5,115.6l0.1,0.1c17.7,15.1,37.7,32.1,58.5,50.3c21-18.3,41-35.3,58.7-50.4c50.5-43.1,94.1-80.2,123.5-115.6
	c30.3-36.6,43.9-69.2,43.9-105.6c0-34.5-11.6-66.1-32.7-89C428.6,70.4,400,58,369,58c-22.8,0-43.7,7.2-62.1,21.5
	c-16.4,12.7-27.9,28.8-34.6,40c-3.5,5.8-9.5,9.2-16.3,9.2s-12.8-3.5-16.3-9.2c-6.7-11.2-18.2-27.3-34.6-40
	C186.7,65.2,165.8,58,143,58z"/>
<g>
	<g>
		<g>
			<path d="M161.1,159.1c5.2,0.7,10-2.8,10.8-8c0.7-5.2-2.9-10-8.1-10.7c-5.2-0.7-10,2.8-10.8,8
				C152.2,153.6,155.9,158.4,161.1,159.1z"/>
		</g>
	</g>
	<g>
		<g>
			<path d="M123.3,153.7c5.2,0.8,10-2.9,10.8-8c0.8-5.2-2.9-10-8.1-10.7c-5.2-0.7-10,2.9-10.8,8C114.5,148.2,118.1,153,123.3,153.7z
				"/>
		</g>
	</g>
	<g>
		<g>
			<path d="M85.6,148.3c5.2,0.8,10-2.8,10.8-8c0.8-5.2-2.9-10-8.1-10.7c-5.2-0.7-10,2.9-10.8,8C76.8,142.8,80.4,147.6,85.6,148.3z"
				/>
		</g>
	</g>
	<g>
		<g>
			<path d="M188,239.5c5.2,0.8,10.1-2.8,10.8-8c0.7-5.2-2.9-9.9-8.1-10.7c-5.2-0.7-10,2.8-10.8,8C179.2,234,182.8,238.8,188,239.5z"
				/>
		</g>
	</g>
	<g>
		<g>
			<path d="M142.2,223.4c-0.7,5.2,2.9,10,8.1,10.7c5.2,0.8,10.1-2.8,10.8-8c0.7-5.2-2.9-10-8.1-10.7
				C147.8,214.6,143,218.2,142.2,223.4z"/>
		</g>
	</g>
	<g>
		<g>
			<path d="M104.5,218c-0.7,5.2,2.9,10,8.1,10.7c5.2,0.8,10-2.8,10.8-8c0.7-5.2-2.9-10-8.1-10.7C110.1,209.2,105.3,212.8,104.5,218z
				"/>
		</g>
	</g>
	<g>
		<g>
			<path d="M85.6,215.3c0.7-5.2-2.9-10-8.1-10.7c-5.2-0.7-10,2.9-10.8,8c-0.8,5.2,2.9,10,8.1,10.7C80.1,224,84.9,220.5,85.6,215.3z"
				/>
		</g>
	</g>
	<g>
		<g>
			<path d="M174.5,199.3c5.2,0.8,10-2.8,10.8-8c0.7-5.2-2.9-10-8.1-10.7c-5.2-0.7-10,2.9-10.8,8
				C165.7,193.8,169.3,198.6,174.5,199.3z"/>
		</g>
	</g>
	<g>
		<g>
			<path d="M136.9,193.9c5.2,0.7,10-2.8,10.7-8c0.8-5.2-2.9-10-8.1-10.7c-5.2-0.8-10,2.8-10.8,8C128,188.4,131.6,193.2,136.9,193.9z
				"/>
		</g>
	</g>
	<g>
		<g>
			<path d="M91,177.8c-0.7,5.2,2.9,10,8.1,10.7c5.2,0.8,10.1-2.8,10.8-8c0.7-5.2-2.9-10-8.2-10.7C96.6,169,91.8,172.6,91,177.8z"/>
		</g>
	</g>
	<g>
		<g>
			<path d="M53.3,172.4c-0.7,5.2,2.9,10,8.1,10.7c5.2,0.8,10-2.8,10.8-8c0.7-5.2-2.9-10-8.1-10.7C58.8,163.6,54,167.2,53.3,172.4z"
				/>
		</g>
	</g>
	<g>
		<g>
			<path d="M109.9,113.5c5.2,0.7,10-2.8,10.8-8c0.7-5.2-2.9-10-8.1-10.7c-5.2-0.7-10,2.8-10.7,8C101,108,104.6,112.8,109.9,113.5z"
				/>
		</g>
	</g>
	<g>
		<g>
			<path d="M72.1,108.1c5.2,0.7,10-2.8,10.8-8c0.7-5.2-2.9-10-8.1-10.7c-5.2-0.7-10.1,2.9-10.8,8C63.3,102.6,66.9,107.4,72.1,108.1z
				"/>
		</g>
	</g>
	<g>
		<g>
			<path d="M215,319.9c5.2,0.7,10-2.8,10.8-8c0.7-5.2-2.9-10-8.1-10.7c-5.2-0.8-10,2.8-10.8,8C206.2,314.3,209.8,319.1,215,319.9z"
				/>
		</g>
	</g>
	<g>
		<g>
			<path d="M169.2,303.8c-0.7,5.2,2.9,10,8.1,10.7c5.2,0.7,10.1-2.9,10.8-8c0.8-5.1-2.9-10-8.1-10.7
				C174.8,295,169.9,298.6,169.2,303.8z"/>
		</g>
	</g>
	<g>
		<g>
			<path d="M142.2,290.3c-5.2-0.7-10,2.9-10.7,8c-0.8,5.2,2.9,10,8.1,10.7c5.2,0.8,10-2.8,10.8-8
				C151.1,295.9,147.5,291.1,142.2,290.3z"/>
		</g>
	</g>
	<g>
		<g>
			<path d="M93.8,292.9c-0.8,5.2,2.9,10,8.1,10.7c5.2,0.7,10-2.8,10.8-8c0.7-5.2-2.9-9.9-8.1-10.7C99.3,284.2,94.5,287.8,93.8,292.9
				z"/>
		</g>
	</g>
	<g>
		<g>
			<path d="M201.5,279.7c5.2,0.7,10-2.8,10.8-8c0.7-5.2-2.9-10-8.1-10.7c-5.2-0.8-10,2.8-10.8,8
				C192.7,274.2,196.3,278.9,201.5,279.7z"/>
		</g>
	</g>
	<g>
		<g>
			<path d="M155.7,263.6c-0.7,5.2,2.9,10,8.1,10.7c5.2,0.8,10-2.8,10.8-8c0.8-5.1-2.9-10-8.1-10.7
				C161.3,254.8,156.5,258.4,155.7,263.6z"/>
		</g>
	</g>
	<g>
		<g>
			<path d="M128.8,250.1c-5.2-0.7-10,2.9-10.8,8c-0.8,5.2,2.9,10,8.1,10.7c5.2,0.8,10-2.8,10.8-8C137.6,255.7,134,250.9,128.8,250.1
				z"/>
		</g>
	</g>
	<g>
		<g>
			<path d="M91,244.7c-5.2-0.7-10,2.9-10.8,8c-0.7,5.2,2.9,10,8.1,10.7c5.2,0.8,10.1-2.8,10.8-8C99.9,250.3,96.2,245.5,91,244.7z"/>
		</g>
	</g>
	<g>
		<g>
			<path d="M196.2,384.2c-0.7,5.2,2.9,10,8.1,10.7c5.2,0.7,10-2.9,10.7-8c0.8-5.2-2.9-10-8.1-10.7
				C201.7,375.4,196.9,379,196.2,384.2z"/>
		</g>
	</g>
	<g>
		<g>
			<path d="M166.5,389.5c5.2,0.8,10-2.8,10.8-8c0.7-5.2-2.9-10-8.1-10.7c-5.2-0.7-10,2.9-10.8,8
				C157.7,383.9,161.4,388.7,166.5,389.5z"/>
		</g>
	</g>
	<g>
		<g>
			<path d="M182.7,344c-0.7,5.2,2.9,10,8.1,10.7c5.2,0.8,10-2.8,10.8-8c0.7-5.2-2.9-10-8.1-10.7C188.3,335.2,183.4,338.8,182.7,344z
				"/>
		</g>
	</g>
	<g>
		<g>
			<path d="M155.8,330.5c-5.2-0.8-10,2.8-10.8,8c-0.8,5.2,2.9,10,8.1,10.7c5.2,0.8,10-2.8,10.8-8C164.6,336.1,161,331.3,155.8,330.5
				z"/>
		</g>
	</g>
	<g>
		<g>
			<path d="M107.2,333.1c-0.7,5.2,2.9,10,8.1,10.7c5.2,0.8,10-2.8,10.8-8c0.7-5.2-2.9-10-8.1-10.7C112.8,324.4,108,328,107.2,333.1z
				"/>
		</g>
	</g>
	<g>
		<g>
			<path d="M56.1,287.5c-0.8,5.2,2.9,10,8.1,10.7c5.2,0.7,10-2.8,10.8-8c0.7-5.2-2.9-9.9-8.1-10.7C61.6,278.8,56.8,282.4,56.1,287.5
				z"/>
		</g>
	</g>
	<g>
		<g>
			<path d="M228.5,360.1c5.2,0.8,10.1-2.8,10.8-8c0.7-5.2-2.9-9.9-8.1-10.7c-5.2-0.7-10,2.8-10.8,8
				C219.7,354.6,223.3,359.4,228.5,360.1z"/>
		</g>
	</g>
	<g>
		<g>
			<path d="M255.5,440.5c5.2,0.7,10-2.8,10.8-8c0.7-5.2-2.9-10-8.1-10.7c-5.2-0.8-10,2.8-10.8,8
				C246.7,434.9,250.2,439.7,255.5,440.5z"/>
		</g>
	</g>
	<g>
		<g>
			<path d="M209.7,424.4c-0.7,5.2,2.9,10,8.1,10.7c5.2,0.7,10.1-2.9,10.8-8c0.8-5.1-2.9-10-8.1-10.7
				C215.2,415.6,210.4,419.2,209.7,424.4z"/>
		</g>
	</g>
	<g>
		<g>
			<path d="M242,400.3c5.2,0.7,10-2.8,10.8-8c0.7-5.2-2.9-10-8.1-10.7c-5.2-0.8-10,2.8-10.8,8C233.2,394.7,236.8,399.5,242,400.3z"
				/>
		</g>
	</g>
	<g>
		<g>
			<path d="M134.1,78.7c5.2,0.7,10-2.8,10.8-8c0.7-5.2-2.9-10-8.1-10.7c-5.2-0.7-10,2.8-10.8,8C125.3,73.2,128.9,78,134.1,78.7z"/>
		</g>
	</g>
	<g>
		<g>
			<path d="M96.4,73.3c5.2,0.8,10-2.9,10.8-8c0.8-5.2-2.9-10-8.1-10.7c-5.2-0.7-10,2.9-10.8,8C87.6,67.8,91.2,72.6,96.4,73.3z"/>
		</g>
	</g>
	<g>
		<g>
			<path d="M147.6,118.9c5.2,0.8,10-2.8,10.8-8c0.7-5.2-2.9-10-8.1-10.7c-5.2-0.7-10,2.9-10.8,8
				C138.8,113.4,142.4,118.2,147.6,118.9z"/>
		</g>
	</g>
	<g>
		<g>
			<path d="M109.9,113.5c5.2,0.7,10-2.8,10.7-8c0.8-5.2-2.9-10-8.1-10.7c-5.2-0.8-10,2.8-10.8,8C101,108,104.7,112.8,109.9,113.5z"
				/>
		</g>
	</g>
	<g>
		<g>
			<path d="M47.9,142.9c5.2,0.8,10-2.8,10.8-8c0.8-5.2-2.9-10-8.1-10.7c-5.2-0.7-10,2.9-10.8,8C39.1,137.3,42.7,142.1,47.9,142.9z"
				/>
		</g>
	</g>
	<g>
		<g>
			<path d="M66.8,212.5c-0.7,5.2,2.9,10,8.1,10.7c5.2,0.8,10-2.8,10.8-8c0.7-5.2-2.9-10-8.1-10.7C72.3,203.8,67.5,207.4,66.8,212.5z
				"/>
		</g>
	</g>
	<g>
		<g>
			<path d="M47.9,209.8c0.7-5.2-2.9-10-8.1-10.7c-5.2-0.7-10,2.9-10.8,8c-0.8,5.2,2.9,10,8.1,10.7C42.4,218.6,47.2,215,47.9,209.8z"
				/>
		</g>
	</g>
	<g>
		<g>
			<path d="M53.3,172.4c-0.7,5.2,2.9,10,8.1,10.7c5.2,0.8,10.1-2.8,10.8-8c0.7-5.2-2.9-10-8.2-10.7C58.8,163.6,54,167.2,53.3,172.4z
				"/>
		</g>
	</g>
	<g>
		<g>
			<path d="M15.6,166.9c-0.7,5.2,2.9,10,8.1,10.7c5.2,0.8,10-2.8,10.8-8c0.7-5.2-2.9-10-8.1-10.7C21.1,158.2,16.3,161.7,15.6,166.9z
				"/>
		</g>
	</g>
	<g>
		<g>
			<path d="M91,244.7c-5.2-0.7-10,2.9-10.8,8c-0.8,5.2,2.9,10,8.1,10.7c5.2,0.8,10-2.8,10.8-8C99.9,250.2,96.3,245.4,91,244.7z"/>
		</g>
	</g>
	<g>
		<g>
			<path d="M53.3,239.3c-5.2-0.7-10,2.9-10.8,8c-0.7,5.2,2.9,10,8.1,10.7c5.2,0.8,10.1-2.8,10.8-8C62.1,244.8,58.5,240,53.3,239.3z"
				/>
		</g>
	</g>
</g>
</svg>
