<svg xmlns="http://www.w3.org/2000/svg" viewBox="0 0 156.95 43.78"><title>Middel 15</title><g id="Laag_2" data-name="Laag 2"><g id="Layer_1" data-name="Layer 1"><path d="M47.83,4a3,3,0,0,1,3,3V36.78a3,3,0,0,1-3,3H7a3,3,0,0,1-3-3V7A3,3,0,0,1,7,4H47.83m0-4H7A7,7,0,0,0,0,7V36.78a7,7,0,0,0,7,7H47.83a7,7,0,0,0,7-7V7a7,7,0,0,0-7-7Z"/><path d="M33.5,26.53H31.56v3.34H28.23V26.53H21.36V24.16l7.06-10.4h3.14V23.89H33.5Zm-5.27-2.64V21.16c0-.46,0-1.12.06-2s.07-1.37.09-1.51h-.09a12.34,12.34,0,0,1-1,1.77l-2.95,4.46Z"/><path d="M150,4a3,3,0,0,1,3,3V36.78a3,3,0,0,1-3,3H109.12a3,3,0,0,1-3-3V7a3,3,0,0,1,3-3H150m0-4H109.12a7,7,0,0,0-7,7V36.78a7,7,0,0,0,7,7H150a7,7,0,0,0,7-7V7a7,7,0,0,0-7-7Z"/><path d="M134.63,17.37a3.77,3.77,0,0,1-.91,2.56,4.77,4.77,0,0,1-2.57,1.46v.06a5.17,5.17,0,0,1,2.95,1.19,3.31,3.31,0,0,1,1,2.54,4.32,4.32,0,0,1-1.68,3.62,7.81,7.81,0,0,1-4.82,1.29,11.76,11.76,0,0,1-4.65-.87v-2.9a10.72,10.72,0,0,0,2.06.78,9.1,9.1,0,0,0,2.23.29,4.36,4.36,0,0,0,2.49-.57,2.09,2.09,0,0,0,.8-1.84,1.66,1.66,0,0,0-.92-1.61,7,7,0,0,0-3-.47h-1.23V20.29h1.25a5.89,5.89,0,0,0,2.74-.49,1.79,1.79,0,0,0,.86-1.68c0-1.22-.76-1.83-2.29-1.83a5.17,5.17,0,0,0-1.62.26,8,8,0,0,0-1.82.92L124,15.12a8.74,8.74,0,0,1,5.25-1.59,6.74,6.74,0,0,1,4,1A3.23,3.23,0,0,1,134.63,17.37Z"/><path d="M78.47,36.76a1.5,1.5,0,0,1-1.5-1.5V8.52a1.5,1.5,0,1,1,3,0V35.26A1.5,1.5,0,0,1,78.47,36.76Z"/></g></g></svg>